<svg xmlns="http://www.w3.org/2000/svg" enable-background="new 0 0 2000 2000" viewBox="0 0 2000 2000"><path fill="#e9eff8" fill-rule="evenodd" d="M501.53,559.01c205.92-76.44,415.2-8.86,557.14,138.34c70.99,73.62,180.99,48.18,292.99,22.75   c111.93-25.42,225.86-50.84,304.82,22.61c107.81,100.29,58.43,358.15-89.41,469.84c-200.94,151.8-949.54,156.36-1073.74,104.27   c-212.25-89.01-1.35-253.86-100.43-411.88C276.03,718.51,410.54,592.79,501.53,559.01z" clip-rule="evenodd" class="colore9eff8 svgShape"/><ellipse cx="1000" cy="1401.96" fill="#d0d9ee" fill-rule="evenodd" clip-rule="evenodd" rx="786.96" ry="79.42" class="colord0d9ee svgShape"/><path fill="#f4ae7c" fill-rule="evenodd" d="M1547.33 1000.94c6.88 4.37 5.94 5.46 6.85 5.99 1.06.63 16.92-.71 16.92-.71s46.78-3.61 49.31-3.91l42.36-25.38 17.77 19.89c0 0-46.78 26.25-49.44 27.14-2.69.91-66.57-2.37-72.19-2.46 0 0-6.72 2.65-10.98 4.15-4.26 1.49-8.96.83-10.21 1.03-.19.04-4.44.49-9.82-.5-4.65-.84.06-2.38.06-2.38s8.82-.13 8.68-.9c-.1-.6-4.91-.22-10.04-1.11-1.34-.21-2.64-.44-3.83-.67-3.15-.57-3.77-2.86-.4-2.83 1.2 0 3.18.06 4.58.34 1.52.29 2.99.03 4.28.07 2.62.04 4.5.13 4.44 0-.08-.15.44-.55-.96-.83-1.68-.35-5.39-.2-7.81-.94-1.4-.4-4.34-1.05-4.34-1.05s-4.26-1.93-4.25-2.24c.07-1.69 3.29-1.28 5.12-.46 1.38-.12 4.45.68 4.45.68s6.52.06 6.54-.97c0-.43-4.01-.99-7.86-2.23-3.56-1.16-7.03-2.95-6.94-3.77.14-1.38 4.25-.58 4.25-.58s2.82.76 3.78.91c1.11.2 4.54.47 4.54.47s11.85.43 11.76-.52c-.06-.98-1.13-3.4-1.85-3.72-.72-.31-2.33-.09-3.06-.41-.75-.29-1.47-1.39-1.22-2.4.25-1.01 4.29-1.03 4.29-1.03S1545.36 999.66 1547.33 1000.94zM1653.51 1377.43l.84 18.07c.35 2.33 1.77 8 1.75 10.07-.08 7.83-34.75-6.99-26.92-10.38.71-.31 4.44-2.64 4.7-5.32.4-4.09 1.39-12.36 1.39-12.36L1653.51 1377.43z" clip-rule="evenodd" class="colorf4ae7c svgShape"/><path fill="#142d4d" fill-rule="evenodd" d="M1629.27,1395.11c0,0,8.15,2.51,12.33,3.12c4.18,0.66,9.75-4.31,12.7-2.95c3.25,1.54,2.76,16.27,2.76,16.27   s-43.67,2.15-55.95-1.98C1596.25,1408,1612.51,1400.52,1629.27,1395.11z" clip-rule="evenodd" class="color142d4d svgShape"/><path fill="#f4ae7c" fill-rule="evenodd" d="M1730.21,1379.94l0.84,18.12c0.35,2.29,1.77,7.96,1.75,10.07c-0.08,7.83-34.75-7.04-26.91-10.42   c0.71-0.31,5.55-4.4,5.81-7.04c0.4-4.13,0.28-10.64,0.28-10.64L1730.21,1379.94z" clip-rule="evenodd" class="colorf4ae7c svgShape"/><path fill="#142d4d" fill-rule="evenodd" d="M1705.97 1397.62c0 0 8.15 2.51 12.33 3.17 4.18.62 9.75-4.35 12.7-2.99 3.25 1.54 3.24 15.04 3.24 15.04s-46.69 2.9-57.62-.4C1671.7 1410.99 1689.21 1403.07 1705.97 1397.62zM1677.7 1118.83l-14.79 6.2-32.48 147.57.12 110.9 24.82.79c0 0 12.54-96.83 12.62-104.35.07-7.52 54.82-130.99 54.82-130.99L1677.7 1118.83z" clip-rule="evenodd" class="color142d4d svgShape"/><path fill="#0f3970" fill-rule="evenodd" d="M1688.98,1127.1c0,0,9.68,114.02,9.48,133.24c-0.2,19.22,7.49,126.82,7.49,126.82l24.88,0.09   c0,0,2.13-32.72,5.29-80.91c0.5-7.56-0.3-22.78,0.32-30.6c4.45-56.15,12.64-109.01,9.2-130.03c-0.55-3.39-1.57-12.22-3.7-14.47   C1725.82,1114.22,1688.98,1127.1,1688.98,1127.1z" clip-rule="evenodd" class="color0f3970 svgShape"/><path fill="#406fb5" fill-rule="evenodd" d="M1631.86,992.43l25.88,25.29c0,0,19.55-13.99,29.2-22.46c11.7-10.27,29.25-28.51,27.72-29.63   c-4.37-3.1-13.88-6.72-21.03-6C1668.99,962.04,1631.86,992.43,1631.86,992.43z" clip-rule="evenodd" class="color406fb5 svgShape"/><path fill="#6998d0" fill-rule="evenodd" d="M1731.7,957.1c0,0,17.15,2.59,21.63,5.94c5.05,3.78,10.61,12.22,10.61,12.22s-22.1,99.42-22.31,116.22   c-0.16,12.93,4.11,44.85,4.11,44.85s-63.75,3.39-87.78-6.42c0,0,8.01-37.77,8.11-47.75c0.1-9.94,10.14-100.3,12.28-106.59   c1.94-5.72,5.49-15.96,17.15-18.42C1707.18,954.73,1731.7,957.1,1731.7,957.1z" clip-rule="evenodd" class="color6998d0 svgShape"/><path fill="#f4ae7c" fill-rule="evenodd" d="M1727.29,930.23l3.96,27.88c0,0-15.86,32.98-25.1,29.99c-7.75-2.46-2.67-31.75-2.67-31.75s4.4-15.7,3.21-23.61   C1705.51,924.87,1727.29,930.23,1727.29,930.23z" clip-rule="evenodd" class="colorf4ae7c svgShape"/><path fill="#ec724c" fill-rule="evenodd" d="M1706.7,932.74c-1.19-7.87,20.59-2.51,20.59-2.51l0.33,2.33c-0.65,1.54-1.45,2.81-2.41,3.82   c-4.93,5.19-12.58,8.22-19.18,8.4C1706.74,940.57,1707.19,935.99,1706.7,932.74z" clip-rule="evenodd" class="colorec724c svgShape"/><path fill="#f4ae7c" fill-rule="evenodd" d="M1731.28,890.92c0.62-0.22,4.62,31.75-3.68,40.41c-8.3,8.71-24.34,11.43-30.01,4.44   c-6.27-7.69-5.6-41.99,7.26-50.92C1717.71,875.97,1731.28,890.92,1731.28,890.92z" clip-rule="evenodd" class="colorf4ae7c svgShape"/><path fill="#0f3970" fill-rule="evenodd" d="M1709.89,867.7c9.85,2.07,16.18,8.14,18.51,10.73c4.48,0.57,10.54,3.08,16.73,13.5   c7.61,12.8,1.75,26.82-7.33,33.68c-9.08,6.82-9.05,14.86-9.05,14.86l-1.37-4.22c-1.01-3.12-1.41-6.46-1.02-9.72   c0.23-1.98,0.67-4.13,1.52-5.85c2.21-4.62-4.57-7.74-6.45-11.61c-1.44-2.99-1.44-9.76-3.71-14.64l-2.73-3.78   c0,0-6.34-5.01-12.61-3.69C1696.11,888.33,1697.25,864.98,1709.89,867.7z" clip-rule="evenodd" class="color0f3970 svgShape"/><path fill="#f3a992" fill-rule="evenodd" d="M1721.78,914.93c-0.11,3.87,1.64,7.08,3.9,7.17c2.26,0.04,4.19-3.08,4.29-6.95c0.11-3.91-1.64-7.12-3.91-7.17   C1723.81,907.94,1721.89,911.02,1721.78,914.93z" clip-rule="evenodd" class="colorf3a992 svgShape"/><polygon fill="#d0d9ee" fill-rule="evenodd" points="1363.03 664.44 1444.11 728.75 1409.52 753.7" clip-rule="evenodd" class="colord0d9ee svgShape"/><polygon fill="#d0d9ee" fill-rule="evenodd" points="1461.48 717.3 1365.78 665.45 1490.26 711.52" clip-rule="evenodd" class="colord0d9ee svgShape"/><polygon fill="#aab9de" fill-rule="evenodd" points="1461.48 717.3 1446.84 758.96 1444.11 728.75 1363.03 664.44 1365.78 665.45" clip-rule="evenodd" class="coloraab9de svgShape"/><polygon fill="#8d9fca" fill-rule="evenodd" points="1446.84 758.96 1428.78 739.8 1444.11 728.75" clip-rule="evenodd" class="color8d9fca svgShape"/><path fill="#8d9fca" fill-rule="evenodd" d="M1468.36,742.37c-2.25-1.28-3.92,2.01-1.94,3.14c1.03,0.64,2.06,1.29,3.07,1.96c2.36,1.35,3.9-2.02,2.03-3.09   C1470.47,743.7,1469.42,743.03,1468.36,742.37L1468.36,742.37z M1362.88,933.7c0.58,2.33,4.18,1.48,3.58-0.92   c-0.31-1.17-0.58-2.34-0.84-3.52c-0.63-2.51-4.17-1.44-3.61,0.77C1362.27,931.27,1362.56,932.49,1362.88,933.7L1362.88,933.7z    M1360.45,918.78c0,2.2,3.69,2.48,3.69-0.19c-0.06-1.2-0.11-2.39-0.11-3.59c0-2.45-3.69-2.43-3.69-0.02   C1360.34,916.25,1360.38,917.51,1360.45,918.78L1360.45,918.78z M1361.38,903.62c-0.31,2.5,3.04,3.03,3.63,0.7   c0.22-1.16,0.48-2.34,0.78-3.48c0.61-2.43-3-3.23-3.57-0.95C1361.89,901.11,1361.61,902.38,1361.38,903.62L1361.38,903.62z    M1366.19,889.16c-1.08,1.9,1.97,3.99,3.3,1.65c0.49-1,1.08-2.22,1.68-3.15c1.23-2.16-2.01-3.93-3.19-1.87   C1367.34,886.84,1366.74,888.06,1366.19,889.16L1366.19,889.16z M1374.57,876.48c-1.61,1.93,1.29,4.22,2.8,2.42   c0.78-0.91,1.57-1.79,2.4-2.66c1.67-1.67-0.87-4.35-2.65-2.57C1376.24,874.59,1375.4,875.51,1374.57,876.48L1374.57,876.48z    M1385.54,866.08c-2.01,1.67,0.52,4.37,2.26,2.93c0.94-0.74,1.92-1.46,2.9-2.15c2.02-1.44-0.17-4.42-2.12-3.03   C1387.56,864.56,1386.54,865.3,1385.54,866.08L1385.54,866.08z M1398.2,857.9c-2.23,1.27-0.26,4.4,1.74,3.26   c1.07-0.57,2.14-1.13,3.23-1.66c2.36-1.35,0.24-4.38-1.63-3.31C1400.41,856.74,1399.31,857.31,1398.2,857.9L1398.2,857.9z    M1411.88,851.72c-2.3,0.86-0.98,4.31,1.28,3.46l3.43-1.22c2.42-0.91,0.96-4.3-1.18-3.5   C1414.23,850.86,1413.06,851.29,1411.88,851.72L1411.88,851.72z M1426.2,847.31c-2.38,0.6-1.46,4.17,0.88,3.59l3.54-0.82   c2.52-0.63,1.44-4.17-0.77-3.61L1426.2,847.31L1426.2,847.31z M1440.92,844.55c-2.39,0.3-1.96,3.97,0.48,3.67l3.62-0.43   c2.51-0.31,1.94-3.96-0.39-3.67C1443.39,844.24,1442.16,844.38,1440.92,844.55L1440.92,844.55z M1455.77,843.35   c-2.46,0.31-2.23,3.69,0.22,3.69c1.24-0.07,2.48-0.14,3.72-0.24c2.63-0.33,1.92-3.96-0.28-3.68L1455.77,843.35L1455.77,843.35z    M1470.35,842.03c-2.38,0.3-1.97,3.97,0.48,3.66c1.23-0.16,2.46-0.33,3.7-0.52c2.29-0.29,1.98-3.97-0.56-3.65   C1472.77,841.7,1471.56,841.87,1470.35,842.03L1470.35,842.03z M1484.68,839.44c-2.35,0.59-1.47,4.17,0.9,3.58   c1.21-0.3,2.44-0.6,3.64-0.95c2.19-0.55,1.5-4.18-1.03-3.55C1487.05,838.86,1485.84,839.15,1484.68,839.44L1484.68,839.44z    M1498.37,834.89c-2.15,0.92-0.81,4.36,1.52,3.37c1.17-0.52,2.31-1.09,3.45-1.69c2.18-1.25,0.27-4.41-1.78-3.24   C1500.58,833.88,1499.4,834.42,1498.37,834.89L1498.37,834.89z M1510.1,827.21c-1.7,1.7,0.89,4.34,2.63,2.59   c0.94-0.94,1.8-1.9,2.61-2.95c1.41-1.69-1.24-4.27-2.96-2.22C1511.7,825.55,1510.91,826.4,1510.1,827.21L1510.1,827.21z    M1516.68,815.41c-0.54,2.17,2.98,3.3,3.62,0.74c0.26-1.32,0.42-2.59,0.51-3.94c0-2.67-3.69-2.39-3.69-0.19   C1517.04,813.18,1516.9,814.26,1516.68,815.41L1516.68,815.41z M1515.85,801.67c0.56,2.22,4.18,1.5,3.55-1.01   c-0.34-1.23-0.74-2.45-1.18-3.65c-0.86-2.29-4.31-0.98-3.46,1.29C1515.16,799.4,1515.54,800.53,1515.85,801.67L1515.85,801.67z    M1510.11,788.59c1.18,2.07,4.42,0.29,3.19-1.86c-0.51-1.02-1.36-2.25-1.98-3.23c-1.07-1.88-4.44-0.33-3.09,2.02   C1508.79,786.32,1509.68,787.74,1510.11,788.59L1510.11,788.59z M1501.83,776.71c1.6,1.92,4.39-0.51,2.87-2.32   c-0.78-0.98-1.59-1.93-2.4-2.88c-1.51-1.81-4.41,0.48-2.8,2.41C1500.29,774.84,1501.07,775.77,1501.83,776.71L1501.83,776.71z    M1492.05,765.93c1.7,1.7,4.34-0.89,2.59-2.63c-0.86-0.86-1.78-1.8-2.69-2.6c-1.62-1.62-4.35,0.87-2.53,2.69   C1490.31,764.22,1491.18,765.07,1492.05,765.93L1492.05,765.93z M1481.21,756.15c1.83,1.52,4.24-1.27,2.33-2.87l-2.92-2.33   c-1.75-1.45-4.26,1.26-2.26,2.92C1479.31,754.56,1480.29,755.4,1481.21,756.15z" clip-rule="evenodd" class="color8d9fca svgShape"/><polygon fill="#d0d9ee" fill-rule="evenodd" points="1174.43 562.43 1073.22 603.93 1101.01 639.43" clip-rule="evenodd" class="colord0d9ee svgShape"/><polygon fill="#d0d9ee" fill-rule="evenodd" points="1058.94 587.2 1171.34 562.66 1031.41 572.88" clip-rule="evenodd" class="colord0d9ee svgShape"/><polygon fill="#aab9de" fill-rule="evenodd" points="1058.94 587.2 1061.57 633.8 1073.22 603.93 1174.43 562.43 1171.34 562.66" clip-rule="evenodd" class="coloraab9de svgShape"/><polygon fill="#8d9fca" fill-rule="evenodd" points="1061.57 633.8 1085.53 619.65 1073.22 603.93" clip-rule="evenodd" class="color8d9fca svgShape"/><path fill="#8d9fca" fill-rule="evenodd" d="M1035.54,630.35c3.29-0.41,2.55-5.21-0.51-4.83l-4.84,0.53c-3.25,0.41-2.56,5.21,0.54,4.82L1035.54,630.35   L1035.54,630.35z M869.59,823.32c-2.16,0-3.22,2.64-1.76,4.1c0.36,0.43,1.08,0.75,1.76,0.75l3.14-0.01c3.14,0,3.21-4.85-0.05-4.85   L869.59,823.32L869.59,823.32z M887.12,822.88c-2.86,0-3.27,4.85,0.27,4.85l4.89-0.31c3.48-0.43,2.52-5.2-0.36-4.84L887.12,822.88   L887.12,822.88z M906.22,821.06c-3.01,0.38-2.6,5.22,0.73,4.8L906.22,821.06L906.22,821.06z M924.77,816.98   c-2.9,1.09-1.74,5.43,1.51,4.61c1.59-0.51,3.16-1.07,4.72-1.68c2.96-1.27,1.2-5.63-1.8-4.51   C927.75,815.98,926.25,816.5,924.77,816.98L924.77,816.98z M941.23,808.69c-2.53,2.11,0.66,5.76,3.05,3.78   c1.37-1.12,2.64-2.29,3.83-3.61c2.16-2.59-1.7-5.54-3.64-3.21C943.47,806.76,942.39,807.73,941.23,808.69L941.23,808.69z    M950.32,793.97c-0.43,3.46,4.42,3.72,4.79,0.83c0.31-1.74,0.5-3.41,0.57-5.18c0-3.35-4.85-3.17-4.85-0.12   C950.77,791.02,950.59,792.48,950.32,793.97L950.32,793.97z M949.01,775.82c0.74,2.96,5.49,1.96,4.68-1.29   c-0.43-1.59-0.9-3.23-1.44-4.79c-1.19-3.18-5.66-1.26-4.6,1.56C948.16,772.79,948.61,774.31,949.01,775.82L949.01,775.82z    M942.32,758.03c1.2,2.8,5.73,1.06,4.41-2.03c-0.68-1.48-1.38-2.98-2.11-4.44c-1.78-3.11-5.76-0.31-4.36,2.14   C940.97,755.13,941.65,756.59,942.32,758.03L942.32,758.03z M933.66,740.81c1.68,2.94,5.78,0.34,4.29-2.27l-2.28-4.29   c-1.68-2.94-5.78-0.34-4.29,2.28C932.16,737.92,932.91,739.39,933.66,740.81L933.66,740.81z M924.61,723.56   c1.76,3.07,5.76,0.32,4.34-2.17l-2.12-4.32c-1.66-2.9-5.61-0.78-4.38,2.09L924.61,723.56L924.61,723.56z M916.73,705.44   c1.09,2.91,5.43,1.74,4.61-1.51c-0.49-1.5-0.94-2.96-1.33-4.49c-0.77-3.09-5.49-1.93-4.71,1.19   C915.73,702.26,916.21,703.84,916.73,705.44L916.73,705.44z M914.3,685.29c-0.4,3.17,4.42,3.77,4.81,0.6   c0.17-1.5,0.46-3.01,0.82-4.47c0.79-3.14-3.94-4.27-4.7-1.2C914.82,681.89,914.5,683.57,914.3,685.29L914.3,685.29z M921.76,666.28   c-1.9,2.65,2.1,5.42,3.92,2.86c0.9-1.25,1.85-2.44,2.88-3.59c2.2-2.64-1.71-5.52-3.6-3.25   C923.83,663.53,922.75,664.91,921.76,666.28L921.76,666.28z M936.42,652.44c-2.51,1.79-0.22,5.71,2.71,4.03   c1.3-0.88,2.63-1.72,3.98-2.52c2.69-1.54,0.39-5.81-2.48-4.17C939.21,650.62,937.8,651.5,936.42,652.44L936.42,652.44z    M953.97,643.12c-2.99,1.28-1.02,5.72,1.88,4.48c1.46-0.62,2.94-1.2,4.43-1.77c2.97-1.11,1.3-5.67-1.72-4.54   C957.01,641.88,955.48,642.48,953.97,643.12L953.97,643.12z M972.57,636.65c-2.91,0.73-1.97,5.49,1.33,4.67l4.63-1.28   c3.03-0.76,1.95-5.49-1.23-4.7L972.57,636.65L972.57,636.65z M991.61,632c-3.35,0.84-1.88,5.47,0.98,4.75l4.73-0.94   c3.09-0.77,2.36-5.18-0.91-4.77L991.61,632L991.61,632z M1010.85,628.58c-3.02,0.38-2.6,5.22,0.72,4.8l4.78-0.7   c3.07-0.38,2.6-5.22-0.68-4.81L1010.85,628.58z" clip-rule="evenodd" class="color8d9fca svgShape"/><path fill="#f4ae7c" fill-rule="evenodd" d="M998.19,890.54c2.95,0.22,5.8-3.46,6.62-4.56c3.14-4.18,5.15-9.1,5.95-11.86c-0.61-1.83-1.25-4.15-1.92-6.94   c-11.38-8.11-12.94-14.12-4.67-18.01c1.67,0.98,3.73,4,6.21,9.06c1.97-0.08,3.47-1.14,4.49-3.18c-2.35-8.54-3.88-15.48-4.59-20.81   c5.61-8.75,18.73-10,36.1-7.64c0.8,4.85,1.47,9.99,1.98,15.42c3.07,2.97,2.67,13.98-0.16,26.66c1.41,7.21-2.83,11.15-12.73,11.81   c-0.1,1.74,0.05,3.74,0.09,4.97c0.03,1.11,0.06,3.27,1.17,3.61l1.83,0.48C1038.37,915.34,1025.79,920.3,998.19,890.54z" clip-rule="evenodd" class="colorf4ae7c svgShape"/><path fill="#0f3970" fill-rule="evenodd" d="M1046.38,826.62c-17.37-2.36-30.49-1.11-36.09,7.63c0.71,5.33,2.24,12.27,4.59,20.81   c-1.02,2.03-2.51,3.09-4.49,3.18c-2.47-5.06-4.54-8.08-6.21-9.06c-8.27,3.89-6.71,9.89,4.67,18.01c0.67,2.8,1.31,5.11,1.92,6.94   c-10.24-2.41-18.81-12.02-20.01-16.18c-11.95-24.71,1.38-35.15,8.5-38.95c3.15-24.47,37.13-3.31,46.07-18.25   C1064.04,811.95,1051.63,826.4,1046.38,826.62z" clip-rule="evenodd" class="color0f3970 svgShape"/><path fill="#ed7d5b" fill-rule="evenodd" d="M1024.06,877.99c2.78,1.44,6.58,2.28,11.41,2.51c-0.1,1.72-0.02,3.7,0.08,4.92   C1030.69,884.44,1026.86,881.96,1024.06,877.99z" clip-rule="evenodd" class="colored7d5b svgShape"/><path fill="#142d4d" fill-rule="evenodd" d="M977.48 1373.6c-10.79-3.99-11.65-9.82-17.47-12.67-5.85-2.87-6.52-7.98-.8-13.53 4.23 3.55 9.47 7.9 12.25 5.6 1.86-1.54 8.15-1.44 9.4.81 5.48 13.37 13.1 9.13 14.6 15.22C995.64 1377.12 982.43 1375.43 977.48 1373.6zM1070.95 1360.3c-19-.32-33.2-.56-39.76-2.73-7.08-2.35-5.61-6.88-1.55-14.12 17.91 8.64 13.13-1.78 21.51-.45 5.88 4.97 14.6 8.3 26.14 10C1082.18 1356.77 1080.2 1360.14 1070.95 1360.3z" clip-rule="evenodd" class="color142d4d svgShape"/><path fill="#6998d0" fill-rule="evenodd" d="M1061.47,893.46c-9.48-2.89-18-4.64-25.54-5.26c-1.37,21.87-12.23,21.71-32.61-0.46   c-19.62,1.73-23.46,1.99-34.35,5.7c-23.55,23.61-25.72,50.87-38.03,82.01c13.63,0.64,19.75,2.36,29.01,5.83   c1.99-7.46,3.66-13.47,5-18.02c-0.38,41.07-0.52,69.2-0.43,84.41c45.08,18.75,82.21,12.33,97.38-2.28   c0.21-36.5,0.5-65.4,0.87-86.69c5.39,6.67,10.39,11.84,15,15.51c11.05-13.3,18.54-18.65,24.81-26.5   C1088.7,923.82,1068.82,901.57,1061.47,893.46z" clip-rule="evenodd" class="color6998d0 svgShape"/><path fill="#f4ae7c" fill-rule="evenodd" d="M1152.32,933.46c-23.68,10.33-40.26,18.86-49.75,25.6l-4.21-6.54c-3.92,4.12-8.39,8.15-13.84,14.02   c5.04,5.54,10.46,10.1,16.76,13.95c16.46-1.84,34.64-14.93,54.57-39.24c6.19-1.3,10.75-3.65,13.68-7.07   c0.15-3.13-1.35-6.28-4.51-9.42c8.26-5.65,11.55-9.69,9.86-12.13C1161.94,921.03,1154.42,927.97,1152.32,933.46z" clip-rule="evenodd" class="colorf4ae7c svgShape"/><path fill="#406fb5" fill-rule="evenodd" d="M1061.9,1045.4c-0.89,3.55,2.8,24.4,3.41,35.28c5.99,38.83,0.86,89.37-2.37,154.36   c-5.78,22.9-14.3,53.42-13.74,96.38c-10.06,3.23-13.7,3.56-22.78,1.14c-6.35-44.83-2.02-80.73,3.72-97.31   c-3.67-25.63-9.15-54.31-17.13-95.69c-8.99,45.09-21.02,78.55-26.23,100.38c-1.03,24.34-5.72,57.2-8.17,98.56   c-7.47,2.36-12.12,3.04-19.86,2.05c-10.05-38.02-8.37-79.39-4.11-124.11c4.53-53.76-2.94-114.47,4.54-135.51   c3.83-12.47,4.32-23.54,5.35-33.25C1002.13,1060.82,1034.59,1060.06,1061.9,1045.4z" clip-rule="evenodd" class="color406fb5 svgShape"/><path fill="#406fb5" fill-rule="evenodd" d="M971.45,1005.96c-2.41,0.38-4.7,0.71-6.85,1.01c-0.11,18.11-0.14,31.68-0.09,40.7c2.13,1,5.13,2.15,7.46,2.44   c-0.01-1.16-0.36-3.85-0.37-5C971.46,1031.28,971.41,1018.22,971.45,1005.96L971.45,1005.96z M1081.68,969.67   c-6.64-5.8-12.96-15.22-18.96-28.26c0.67,4.54,0.94,10.62,0.81,18.23c5.1,6.22,9.85,11.08,14.24,14.58   C1079.12,972.59,1080.42,971.08,1081.68,969.67L1081.68,969.67z M973.33,934.35c-2.92,9.88-5.72,19.51-8.38,28.91   c-0.07,7.94-0.14,15.39-0.19,22.36c1.93-0.19,4.2-0.32,6.88-0.39C971.92,965.96,972.48,949,973.33,934.35z" clip-rule="evenodd" class="color406fb5 svgShape"/><path fill="#f4ae7c" fill-rule="evenodd" d="M935.51 975.74c-2.15 9.14-3.04 17.49-1.28 28.57 5.36 8.16 26.97 3.6 82.63-6.16 2 1.91 6.12 3.81 12.39 2.96 5.82-1.52 6.1-3.12 12.63-9.58 1.59-5.03 1.26-8.87-.98-11.52-7.35 4.54-11.22 6.96-19.5 7.24 2.2-5.95 2.54-9.79.99-11.53-2.83 2.38-4.67 5.95-5.52 10.72-43.88-2-55.45-1.73-61.29 1.48.63-2.89 1.19-5.43 1.69-7.62C950.44 977.86 944.88 976.44 935.51 975.74zM1030.91 1333.61c.45 3.91.51 7.42.19 10.52 14.98 6.83 12.44-1.05 18.42-1.25-1.5-2.78-2.48-6.33-2.93-10.65C1040.07 1334.2 1036.36 1334.64 1030.91 1333.61L1030.91 1333.61zM961.1 1340.81c0 2.84-.26 5.35-.79 7.51 4 3.32 8.61 6.79 11.15 4.68 1.22-1.01 4.35-1.32 6.71-.77-.97-3.44-1.74-7.74-2.3-12.91C970.63 1340.81 966.59 1341.3 961.1 1340.81z" clip-rule="evenodd" class="colorf4ae7c svgShape"/><path fill="#0f3970" fill-rule="evenodd" d="M1065.31,1080.68c-26.45,25.89-61.83,25.97-106.14,0.25c-7.48,21.05-0.01,81.75-4.54,135.51   c-4.26,44.72-5.95,86.09,4.11,124.11c0.82,0.11,1.6,0.19,2.36,0.26c5.49,0.49,9.53-0.01,14.78-1.49c0.87-0.25,1.77-0.52,2.72-0.82   c2.45-41.36,7.14-74.22,8.17-98.56c5.21-21.83,17.24-55.29,26.23-100.38c7.98,41.37,13.46,70.06,17.13,95.69   c-5.73,16.58-10.06,52.48-3.72,97.31c1.65,0.44,3.13,0.79,4.49,1.05c5.45,1.03,9.16,0.59,15.69-1.38c0.82-0.25,1.68-0.52,2.59-0.81   c-0.55-42.96,7.97-73.47,13.74-96.38C1066.17,1170.05,1071.3,1119.51,1065.31,1080.68z" clip-rule="evenodd" class="color0f3970 svgShape"/><path fill="#142d4d" fill-rule="evenodd" d="M1023.56,1301.76c9.65,2.75,18.49,3.58,26.51,2.49c0.17-2.22,0.37-4.41,0.58-6.55   c-8.8,1.2-17.89,0.58-27.29-1.86C1023.41,1297.78,1023.47,1299.76,1023.56,1301.76L1023.56,1301.76z M953.03,1309.47   c10.5,1.32,19.79,0.59,27.89-2.19c0.2-2.31,0.41-4.6,0.61-6.84c-9.09,3.11-18.78,4.18-29.09,3.19   C952.62,1305.59,952.82,1307.53,953.03,1309.47L953.03,1309.47z M979.57,1324.02c0.17-2.29,0.34-4.56,0.52-6.79   c-8.1,2.33-16.68,3.07-25.72,2.24c0.31,1.97,0.64,3.94,1,5.89C964.31,1326.42,972.38,1325.97,979.57,1324.02L979.57,1324.02z    M1049.6,1311.35c-8.18,1.42-16.69,1.27-25.51-0.47c0.14,1.96,0.31,3.95,0.49,5.96c9.02,2,17.27,2.36,24.74,1.07   C1049.39,1315.69,1049.48,1313.51,1049.6,1311.35z" clip-rule="evenodd" class="color142d4d svgShape"/><path fill="#d0d9ee" fill-rule="evenodd" d="M1094.82,861.43c-1.01-1.47-1.61-3.25-1.61-5.17v-4.82c0-5.04,4.1-9.15,9.15-9.15h54.14   c5.04,0,9.15,4.11,9.15,9.15v4.82c0,1.92-0.59,3.7-1.61,5.17c1.01,1.46,1.61,3.23,1.61,5.14v4.63c0,1.8-0.53,3.49-1.45,4.9   c0.16,0.23,0.31,0.47,0.44,0.71l0.97,0.71v5.83l-0.03,0.29c-0.73,7.4-7,13.08-14.44,13.08h-3.1l-0.76,1.24   c-2.61,4.27-5.39,5.41-10.23,5.41h-15.24c-4.84,0-7.62-1.14-10.23-5.41l-0.76-1.24h-3.1c-7.33,0-13.54-5.53-14.4-12.8l-0.04-0.36   v-4.03l0.16-0.69c0.24-1.01,0.66-1.94,1.23-2.75c-0.92-1.41-1.45-3.09-1.45-4.9v-4.63   C1093.22,864.66,1093.81,862.89,1094.82,861.43z" clip-rule="evenodd" class="colord0d9ee svgShape"/><path fill="#d0d9ee" fill-rule="evenodd" d="M1162.45,849.28c-1.11,0.12-2.22,0.18-3.33,0.18h-51.31c-11,0-20.73-6.12-20.73-18.03v-1.33   c-0.21-12.16-3.91-21.69-10.24-31.89c-5.61-9.03-12.18-17.31-17.43-26.61c-6.73-11.91-10.51-23.89-11.39-37.59   c-0.23-3.61-0.21-7.24,0.08-10.84l0.02-0.29l0.05-0.29c6.38-38.88,43.12-62.58,80.95-62.58c26.43,0,52.98,11.44,68.69,33.18   c9.71,13.43,14.09,29.28,13.05,45.79c-0.83,13.13-4.36,24.69-10.68,36.18c-4.94,8.97-11.11,16.94-16.46,25.61   c-6.22,10.09-9.87,19.42-10.07,31.31v1.41c0,6.34-2.97,11.76-8.48,14.9l-1.26,0.72L1162.45,849.28z" clip-rule="evenodd" class="colord0d9ee svgShape"/><path fill="#ffffff" fill-rule="evenodd" d="M1161.66,842.26c-0.83,0.09-1.67,0.14-2.54,0.14h-51.31c-7.51,0-13.66-3.45-13.66-10.97v-1.45   c-0.7-40.4-36.21-51.72-39.08-96.42c-0.21-3.35-0.19-6.63,0.07-9.82c5.56-33.9,37.78-56.66,73.97-56.66   c41.25,0,77.33,29.55,74.69,71.46c-2.73,43.36-36.56,54.35-37.23,93.54v1.41C1166.58,837.68,1164.65,840.56,1161.66,842.26z" clip-rule="evenodd" class="colorfff svgShape"/><path fill="#8d9fca" fill-rule="evenodd" d="M1159.57 883.05c-.42 4.27-4.06 7.64-8.43 7.64h-6.48l-2.52 4.12c-1.45 2.37-2.3 2.53-5.08 2.53h-15.24c-2.78 0-3.63-.15-5.08-2.53l-2.52-4.12h-6.49c-4.31 0-7.91-3.28-8.41-7.47v-2.96c.23-.97 1.1-1.69 2.14-1.69h55.96c1.04 0 1.92.73 2.14 1.71.02.09-.04.27.01.31V883.05L1159.57 883.05zM1102.24 863.58h54.38c1.65 0 2.99 1.34 2.99 2.99v4.63c0 1.64-1.34 2.99-2.99 2.99h-54.38c-1.64 0-2.99-1.34-2.99-2.99v-4.63C1099.26 864.92 1100.6 863.58 1102.24 863.58L1102.24 863.58zM1102.36 848.33h54.14c1.71 0 3.11 1.4 3.11 3.11v4.82c0 1.71-1.4 3.11-3.11 3.11h-54.14c-1.71 0-3.11-1.4-3.11-3.11v-4.82C1099.26 849.72 1100.66 848.33 1102.36 848.33zM1120.43 842.4l-6.24-75.47h-8.86c-3.83 0-7.3-1.56-9.82-4.08l.01-.01c-2.52-2.52-4.09-6-4.09-9.81 0-3.83 1.56-7.3 4.08-9.82s5.99-4.08 9.82-4.08c3.77 0 7.05 1.51 9.49 3.95 2.48 2.48 4.07 5.92 4.39 9.68l.69 7.92h27.1l.69-7.92c.33-3.75 1.92-7.2 4.4-9.68 2.44-2.44 5.71-3.95 9.49-3.95 3.82 0 7.29 1.57 9.81 4.09l.01-.01c2.52 2.52 4.08 5.99 4.08 9.82s-1.56 7.3-4.08 9.82-5.99 4.08-9.82 4.08h-8.86l-6.24 75.47h-6.24l6.21-75.47h-26.01l6.21 75.47H1120.43L1120.43 842.4zM1113.65 760.69l-.64-7.39c-.2-2.28-1.13-4.35-2.59-5.8-1.31-1.31-3.06-2.12-5.08-2.12-2.1 0-4.02.86-5.41 2.25-1.39 1.39-2.25 3.3-2.25 5.41 0 2.11.86 4.02 2.24 5.41h.01c1.39 1.39 3.3 2.25 5.41 2.25H1113.65L1113.65 760.69zM1153.28 760.69h8.31c2.1 0 4.02-.86 5.41-2.25 1.39-1.39 2.25-3.3 2.25-5.41s-.86-4.02-2.25-5.41v-.01c-1.38-1.38-3.29-2.24-5.41-2.24-2.01 0-3.76.81-5.07 2.12-1.46 1.46-2.4 3.52-2.6 5.8L1153.28 760.69z" clip-rule="evenodd" class="color8d9fca svgShape"/><path fill="#9d7558" fill-rule="evenodd" d="M1325.94,877.74c-1.83,0.71-3.89-0.2-4.6-2.03c-0.71-1.83,0.2-3.89,2.02-4.6   c59.32-23.02,120.35-23.02,174.92-6.7c-43.53-16.34-96.19-22.46-158.14-13.84c-10.52,1.46-20.63,3.49-30.33,6.04   c-51.91,29.86-84.66,90.69-97.27,158.7c-6.79,36.63-7.74,75.31-2.7,112.37c5.03,37,16.03,72.36,33.13,102.41   c7.71,13.55,16.67,26.02,26.9,37.06c3.4,2.31,6.9,4.56,10.49,6.75c35.59,9.4,75.22,13.94,120.16,11.67   c31.75-1.61,63.05-6.78,93.57-14.76c11.18-2.92,22.25-6.22,33.21-9.86c32.31-13.89,61.16-31.83,83.47-52.86   c11.47-10.82,21.2-22.44,28.76-34.72c3.9-6.34,7.56-12.61,11-18.8c2.91-13.93,4.67-28.22,5.25-42.65   c2.05-50.56-10.22-102.84-37.09-147.49c-13.6-22.61-30.97-43.25-52.13-60.72c-5.29-3.43-10.71-6.68-16.25-9.75   C1485.68,858.17,1404.26,847.34,1325.94,877.74L1325.94,877.74z M1571.03,898.17c-53.28-44.03-129.87-68.44-230.31-54.84   c3.28-0.98,6.63-1.85,10.03-2.6c41.21-9.11,82.38-12.03,121.15-9.14c32.85,8.4,67.23,24.1,102.46,48.55   c35.22,24.44,61.53,57.96,78.62,94.94c4.57,9.87,8.48,20,11.73,30.26c-10.19-22.69-24.24-43.8-41.31-62.63   C1608.17,925.89,1590.51,910.88,1571.03,898.17L1571.03,898.17z M1618.16,947.48c19.09,21.06,34.29,45.04,44.32,70.91   c9.62,24.8,14.51,51.35,13.54,78.74l-0.17,2.24c-4.07,11.34-8.99,23.01-14.81,34.98c0.9-7.32,1.5-14.7,1.8-22.12   c2.1-51.9-10.49-105.58-38.08-151.43c-4.55-7.57-9.51-14.92-14.88-22.02C1612.72,941.62,1615.48,944.52,1618.16,947.48   L1618.16,947.48z M1683.01,1100.43c-1.56,31.1-10.42,63.2-28.07,95.06c-10.05,18.15-21.58,33.66-34.17,46.95   c-2.59,3.7-5.31,7.31-8.14,10.83c-41.77,51.89-109.14,83.51-201.34,72.02c-54.91,5.35-98.86-10.43-132.2-39.27   c-14.37-4.78-27.99-10.84-40.58-18.25c-78.21-30.71-136.27-84.57-191.38-135.69c-29.72-27.58-58.58-54.35-89.3-76.14   c-0.4,16.5-2.36,34.13-5.93,51.97c11.48,12.63,18.31,28.76,20.13,46.04c1.81,17.21-1.35,35.57-9.81,52.76   c-2.24,4.54-4.84,9-7.83,13.33c0.65,5.42,0.65,10.82,0.06,16.14c-2.1,18.64-11.62,36.14-26.96,49.13   c-25.89,21.93-68.38,31.02-119.48,10.81c-7.75-3.07-13.16-7.77-16.72-13.61c-2.66,0.05-5.25,0.06-7.77,0.02   c19.98,12.28,32.91,25.73,33.61,38.43c1.33,24.21-2.53,40.72-9.8,51.18c-6.53,9.39-15.67,13.96-26.25,14.84   c-10.14,0.84-21.54-1.77-33.11-6.75c-10.9-4.7-22.03-11.53-32.42-19.56c-53.41,21.2-126.81,45.41-162.35-8.08   c-15.21,1.49-30.61,1.52-45.09,0.19c-17.16-1.58-33.07-5.1-45.94-10.45c-22.08-9.17-35.44-23.7-31.83-43.14   c1.55-8.33,3.22-16.17,5.04-23.53c-7.22-9.68-11.86-21.4-13.29-35.29c-31.55-42.45-42.62-91.94-17.92-133.17   c1.5-2.5,3.03-4.92,4.6-7.26c-0.5-35.92,5.6-70.38,19.75-94.9c0.25-1.69,0.53-3.36,0.84-5.01c8.83-47.13,41.24-82.63,82.64-106.81   c41.08-24,91.08-36.85,135.51-38.83c5.09-0.22,10.1-0.31,15.02-0.25c2.49-4.72,5.13-9.52,7.94-14.41c1.61-2.81,3.4-5.34,5.33-7.61   c13.42-15.78,33.89-19.16,55.86-15.75c21.3,3.31,44.04,13.03,62.88,23.86c11.79,6.78,22.08,14,29.56,20.36   c38.4,32.66,59.51,65.07,68.95,95.19c1.03,2.19,2.02,4.39,2.95,6.6c7.15-2.71,13.73-3.57,19.73-2.8   c21.42,2.74,34.85,25.61,39.89,58.16c1.42,9.12,2.18,19.03,2.28,29.48c32.5,22.54,62.81,50.65,94.06,79.65   c47.05,43.66,96.28,89.32,158.51,120.51c-3.42-3.06-6.71-6.26-9.87-9.61c-34.4-36.48-54.61-81.93-61.14-128.9   c-5.16-37.07-1.79-75.12,9.83-110.48c11.63-35.38,31.54-68.07,59.47-94.41c21.13-19.92,46.83-36.2,76.99-47.25   c1.87-1.27,3.76-2.52,5.67-3.74c50.43-32.29,113.01-45.98,181.97-28.39c25.92,1.99,50.78,6.53,73.9,13.51   c45.39,13.71,84.11,36.85,110.99,68.58c26.98,31.85,42,72.3,39.85,120.47C1697.11,1049.89,1692.25,1074.35,1683.01,1100.43   L1683.01,1100.43z M1580.45,1275.89c-32.76,27.18-76.14,44.11-129.94,44.62c28.62-4.27,59.52-11.02,89.45-23.46   C1553.78,1291.31,1567.39,1284.36,1580.45,1275.89L1580.45,1275.89z M1537.24,1290.5c-42.87,17.82-88.07,23.75-125.34,27.6   l-0.47,0.04c-16.03-2.03-32.82-5.38-50.4-10.21c-11.58-3.18-22.56-6.78-32.96-10.77c33.74,4.57,69.6,3.67,104.84-1.85   c33.59-5.26,66.65-14.73,96.81-27.66c21.62-7.19,42.78-15.68,63.36-25.2c11.95-5.53,22.71-12.44,32.27-20.49   c-3.12,5.47-6.48,10.8-10.07,15.95C1592.04,1262.3,1565.1,1278.92,1537.24,1290.5L1537.24,1290.5z M1246.45,1249.07   c-42.64-37.46-65.15-85.39-71.27-135.47c-5.91-48.36,3.39-98.76,24.54-143.71c18.14-38.57,45.01-73.11,78.45-98.89   c-37.68,34.11-62.06,86.15-72.6,143.03c-6.93,37.34-7.89,76.8-2.75,114.62c5.15,37.87,16.43,74.13,34,104.99   C1239.84,1238.94,1243.05,1244.09,1246.45,1249.07L1246.45,1249.07z M1299.01,1292.27c21.12,14.24,45.93,23.52,74.5,26.17   c-4.74-1.12-9.53-2.33-14.38-3.66C1337,1308.7,1317,1301.12,1299.01,1292.27L1299.01,1292.27z M1348.29,834.03l0.94-0.22   c23.41-5.18,46.82-8.39,69.8-9.7C1394.12,823.47,1370.43,827.02,1348.29,834.03L1348.29,834.03z M1545.22,844.9   c44.13,13.33,81.68,35.73,107.64,66.37c25.85,30.52,40.23,69.3,38.17,115.55c-0.67,15.07-3.09,30.94-7.42,47.57   c-0.93-34.27-9.05-69.59-24.16-102.29c-17.61-38.09-44.72-72.63-81.02-97.81c-23.64-16.4-46.91-28.95-69.63-38.07   C1521.33,838.46,1533.51,841.36,1545.22,844.9L1545.22,844.9z M1671.36,1129.1c-4.22,18.62-11.01,36.13-20.4,51.74   c2.47-7.78,4.57-15.71,6.28-23.77C1662.47,1147.57,1667.18,1138.25,1671.36,1129.1L1671.36,1129.1z M1643.82,1179.87   c-2.48,7.68-5.35,15.2-8.59,22.51c-12.27,13.89-27.29,25.39-45.12,33.63c-2.66,1.23-5.32,2.44-8,3.63   c12.28-8.13,23.55-16.94,33.54-26.37C1626.68,1202.86,1636.19,1191.69,1643.82,1179.87L1643.82,1179.87z M1239.15,1259.88   c-12.31-7.57-23.53-16.54-33.4-27c-33.34-35.35-52.92-79.43-59.26-125.01c-5.01-36.02-1.75-72.96,9.53-107.28   c11.28-34.29,30.56-65.97,57.61-91.47c14.15-13.35,30.44-25,48.83-34.47c-29.09,25.24-52.67,57.1-69.18,92.22   c-21.69,46.11-31.23,97.86-25.15,147.57c7.04,57.58,34.97,112.37,89.11,152.5c-5.49-1.86-10.88-3.84-16.18-5.92L1239.15,1259.88   L1239.15,1259.88z M950.81,1051.07c-13.83-9.37-28.08-17.68-42.98-24.58c-0.95,11.27-3.82,21.82-8.87,31.08   c-4.37,8.01-15.22,14.96-30.17,20.19c-3.88,4.65-7.95,8.88-12.08,12.62c12.38-9,28.5-11.64,52.36-6.5   c14.71,3.17,27.01,9.52,36.75,18.06C949.07,1084.35,950.72,1067.09,950.81,1051.07L950.81,1051.07z M900.97,1023.42   c-1.52-0.65-3.05-1.28-4.58-1.9c-3,13.89-8.2,26.59-14.68,37.76c-1.63,2.82-3.35,5.54-5.13,8.15c7.82-3.82,13.45-8.31,16.16-13.26   C897.68,1045.11,900.32,1034.64,900.97,1023.42L900.97,1023.42z M889.67,1018.94c-12.6-4.64-25.69-8.25-39.41-10.61   c-2.27,2.15-4.81,4.5-7.54,7.02l-5.11,4.73c6.6,14.15,8.98,29.58,7.44,44.46c-0.46,4.42-1.26,8.79-2.41,13.07   c7.77-1.37,14.95-3.11,21.34-5.18c4.14-5.05,8.05-10.64,11.57-16.71C881.85,1044.86,886.87,1032.48,889.67,1018.94L889.67,1018.94z    M841.31,1006.98c-4.02-0.52-8.09-0.93-12.22-1.23c1.86,2.53,3.56,5.14,5.11,7.81L841.31,1006.98L841.31,1006.98z M819.63,1005.24   c-3.34-0.11-6.71-0.15-10.12-0.11c-0.34,2.49-0.75,4.98-1.22,7.49c-1.11,5.93-2.58,11.91-4.41,17.91c2.48,1.94,4.87,3.91,7.17,5.91   c5.77-6.31,11.96-12.37,17.83-17.91C826.32,1013.89,823.24,1009.43,819.63,1005.24L819.63,1005.24z M802.31,1005.33   c-10.56,0.43-21.49,1.56-32.83,3.46l3.62,1.89c8.77,4.68,17.09,9.82,24.72,15.31c1.42-4.93,2.59-9.83,3.5-14.7   C801.69,1009.29,802.02,1007.3,802.31,1005.33L802.31,1005.33z M757.8,1010.99l-0.66,0.13c2.13,3.05,4.22,6.11,6.26,9.17l2.51,0.92   c9.61,3.64,19.43,8.64,28.67,14.81l1.01-2.91c-7.87-5.78-16.58-11.22-25.82-16.15C765.87,1014.88,761.87,1012.88,757.8,1010.99   L757.8,1010.99z M749.63,1012.79c-2.21,0.52-4.43,1.07-6.67,1.65l-1.62,0.41c3.62,0.46,7.38,1.18,11.24,2.15L749.63,1012.79   L749.63,1012.79z M741.2,1007.57l3.97-0.98l-1.08-1.47c-10.55-4.15-21.39-7.57-32.17-10.1c-4.9-1.15-9.79-2.11-14.63-2.86   c-4.37,5.59-8.22,12.13-11.51,19.34c0.44,2.06,0.8,4.1,1.09,6.14C704.3,1015.39,722.41,1012.42,741.2,1007.57L741.2,1007.57z    M758.67,1003.57c15.56-3.14,30.37-4.91,44.51-5.46c0.23-2.37,0.39-4.73,0.5-7.08c-16.82-11.54-40-18.9-70.05-18.93   c-1.96,0-3.89,0.14-5.76,0.42c7.14,8.86,14.1,17.77,20.73,26.75C751.99,1000.63,755.35,1002.07,758.67,1003.57L758.67,1003.57z    M810.33,997.94l2.15,0l-2-1.74L810.33,997.94L810.33,997.94z M822.81,998.15c8.65,0.36,17.06,1.19,25.24,2.45   c1.47-1.45,2.75-2.75,3.77-3.89c13.38-14.97,25.62-25.01,36.65-30.89c-0.62-2.53-1.33-5.07-2.13-7.63l-1.2-2.48   c-9.32-18.77-22.27-36.31-37.63-50.06c-15.24-13.64-32.84-23.52-51.62-27.1c-12.56-2.39-25.68-1.95-39.02,2.09   c20.06,13.67,34.82,31.89,43.81,52.9c7.07,16.54,10.56,34.8,10.21,53.92C815.29,990.75,819.26,994.34,822.81,998.15L822.81,998.15z    M856.5,1002.09c11.92,2.31,23.37,5.54,34.43,9.56c0.32-2.28,0.58-4.59,0.77-6.93c0.82-10.08,0.37-20.7-1.69-31.73   c-9.77,5.57-20.74,14.83-32.92,28.45L856.5,1002.09L856.5,1002.09z M897.74,1014.22l3.37,1.37c-0.13-6.01-0.79-12.19-1.92-18.45   c-0.04,2.75-0.18,5.47-0.39,8.16C898.55,1008.32,898.19,1011.3,897.74,1014.22L897.74,1014.22z M908.18,1018.65   c14.74,6.64,28.84,14.65,42.51,23.69c-0.26-8.29-0.96-16.18-2.1-23.53c-4.55-29.36-15.96-49.9-33.78-52.18   c-4.88-0.62-10.28,0.08-16.21,2.29C904.87,985.59,908.3,1002.68,908.18,1018.65L908.18,1018.65z M709.2,1021.53   c-7.31,1.22-14.5,2.25-21.58,3.17c0.38,5.88,0.18,11.7-0.57,17.46c-0.41,3.16-0.99,6.29-1.73,9.41l1.41,0.91   c7.19-11.13,14.14-20.9,20.36-28.69C707.74,1022.98,708.44,1022.23,709.2,1021.53L709.2,1021.53z M680.56,1025.58l-0.23,0.03   c-1.96,6.04-3.58,12.35-4.85,18.83c1.16,0.93,2.34,1.84,3.53,2.73c0.4-1.97,0.74-3.96,0.99-5.95   C680.69,1036.07,680.88,1030.85,680.56,1025.58L680.56,1025.58z M672.62,1026.51l-13.64,1.52c3.18,3.95,6.64,7.65,10.37,11.1   C670.28,1034.84,671.37,1030.62,672.62,1026.51L672.62,1026.51z M659.5,1020.84c5.12-0.56,10.31-1.13,15.56-1.75   c0.78-2.18,1.61-4.32,2.48-6.42l0.8-1.88c-1.61-6.77-4.07-13.64-7.42-20.62c-5.18,0.07-10.22,0.45-15.05,1.17   c-4.99,0.74-9.77,1.83-14.28,3.31c2.87,9.84,7.08,18.7,12.4,26.62l0.12,0.17L659.5,1020.84L659.5,1020.84z M650.72,1028.95   c-11.94,1.34-23.51,2.77-34.71,4.74c-0.23,1.24-0.42,2.47-0.57,3.69c11.42,10.38,21.18,20.55,29.42,30.45   c3.29,0.59,6.7,1.02,10.24,1.27c0.96,0.07,1.46,0.05,1.71-0.05c0.32-0.14,0.85-0.62,1.67-1.37c1.44-1.32,3.69-1.23,5.01,0.22   c1.32,1.44,1.23,3.68-0.21,5.01c-1.37,1.26-2.28,2.07-3.63,2.66c-1.42,0.62-2.86,0.78-5.04,0.63c-1.12-0.08-2.22-0.18-3.31-0.29   c3.24,4.26,6.19,8.46,8.88,12.6c1.75-2.48,3.4-4.97,4.94-7.47l-0.02-2.62c0.01-10.4,0.91-20.93,2.67-31.17   C661.42,1041.77,655.69,1035.69,650.72,1028.95L650.72,1028.95z M603.43,1036.18l-2.43,0.56c-0.82,1.72-1.61,3.42-2.38,5.11   c2.92,3.36,6.12,6.49,9.61,9.35c-0.38-3.59-0.44-7.24-0.17-10.96C606.53,1038.88,605,1037.53,603.43,1036.18L603.43,1036.18z    M588.17,1040.16c-12.39,3.77-24.28,8.82-35.66,15.88c9.28,4.13,18.35,9.38,27.04,15.65c2.71-8.92,6.27-18.48,10.75-28.68   C589.58,1042.07,588.87,1041.13,588.17,1040.16L588.17,1040.16z M545.44,1060.74c-2.4,1.7-4.77,3.5-7.13,5.41   c-5.14,4.17-9.88,7.95-14.43,11.57c-5.36,4.27-10.45,8.32-15.2,12.24c15.31-3.95,30.32-2.44,43.16,3.41   c7.96,3.63,15.08,8.92,20.91,15.6c0.32-8.98,1.85-18.96,4.74-29.99c-9.32-6.95-19.09-12.66-29.09-16.99L545.44,1060.74   L545.44,1060.74z M533.84,1060.64c1.19-0.97,2.39-1.91,3.6-2.83c-18.3-6-37.11-7.4-55.14-3.46c-5.56,1.22-11.05,2.94-16.43,5.2   c1.43,18.22,4.2,34.71,8.09,49.59c4.38-3.89,8.87-7.22,13.41-10c8.94-8.51,19.84-17.19,32.1-26.96   C524.14,1068.44,529.03,1064.55,533.84,1060.64L533.84,1060.64z M544.49,1052.76c12.65-8.5,25.84-14.44,39.57-18.78   c-4-6.54-7.24-13.55-9.76-20.82c-2.39-1.75-4.84-3.5-7.33-5.25c-39.52-27.84-70.19-35.79-93.19-30.47   c-6.55,18.62-9.84,41.65-8.67,69.48l0.26,5.16c5.06-1.98,10.2-3.53,15.4-4.67C501.69,1042.85,523.5,1044.96,544.49,1052.76   L544.49,1052.76z M591.16,1031.89c1.63-0.45,3.26-0.87,4.91-1.28l0.22-0.44c-3.51-2.89-7.15-5.79-10.93-8.71   C587.07,1025.05,589,1028.54,591.16,1031.89L591.16,1031.89z M605.33,1028.49l4.77-0.95c1.37-5.48,3.35-11.07,5.9-16.77   c-2.62,2.95-4.93,6.25-6.89,9.91c-1.38,2.58-2.71,5.13-3.98,7.64L605.33,1028.49L605.33,1028.49z M617.8,1026.18   c9.25-1.53,18.72-2.73,28.43-3.85c-4.75-7.61-8.58-15.97-11.3-25.12c-1.84,0.82-3.62,1.72-5.35,2.69   C624.25,1008.95,620.25,1017.72,617.8,1026.18L617.8,1026.18z M492.28,1104.45c-5.92,5.78-10.85,11.5-14.58,17.49   c4.7,14.46,10.51,27.2,17.16,38.32c2.12,1.11,4.27,2.13,6.47,3.04c17.82,7.38,38.44,8.05,60.78,0.98   c6.49-2.05,13.13-4.76,19.88-8.14c0.05-2.89-0.07-5.7-0.34-8.43c-1.28-2.04-2.44-4.21-3.47-6.51c-2.56-5.74-4.29-12.31-5.05-19.74   c-5.87-9.7-14.31-17.13-24.21-21.64c-12.65-5.76-27.72-6.77-42.95-1.67C501.4,1099.71,496.81,1101.79,492.28,1104.45   L492.28,1104.45z M473.2,1130.76c-1.28,3.21-2.23,6.52-2.82,9.99c3.72,4.21,7.69,7.98,11.88,11.29   C478.96,1145.42,475.93,1138.33,473.2,1130.76L473.2,1130.76z M469.7,1150.35c0.26,12.32,4.65,26.68,14.16,44.55   c6.38-3.73,13.39-6.56,21.11-8.53c-5.41-6.21-10.51-13.13-15.21-20.8C482.56,1161.55,475.85,1156.46,469.7,1150.35L469.7,1150.35z    M487.29,1201.11c5.42,9.49,12.18,19.93,20.43,31.51c5.23,7.35,10.86,14.22,16.83,20.59c8.76-5.71,17.9-14.2,27.34-25.91   c1.31-1.63,2.57-3.25,3.79-4.86c-2.93-1.12-5.84-2.36-8.74-3.74c-12.79-6.1-25.18-14.78-36.45-26.32   C501.83,1194.19,494.14,1197.08,487.29,1201.11L487.29,1201.11z M501.93,1236.74c-8.24-11.57-15.07-22.06-20.64-31.65l-1.13,0.86   c-9.92,7.71-17.94,18.4-24.57,32.33c4.09,5.25,8.45,9.8,13.05,13.51c14.23,11.47,31,14.61,49.61,5.1   C512.48,1250.61,507.02,1243.9,501.93,1236.74L501.93,1236.74z M477.79,1198.87c-12.95-23.78-17.56-41.79-15.75-56.99   c-1.09-1.34-2.16-2.72-3.2-4.13c-10.01,15.28-18.72,35.03-25.12,59.87c4.86,12.8,10.62,24.41,17.17,34.16   c6.78-13.27,14.94-23.67,24.91-31.42C476.46,1199.85,477.12,1199.35,477.79,1198.87L477.79,1198.87z M463.98,1132.75   c0.45-1.45,0.96-2.88,1.53-4.29c-0.8,1.01-1.59,2.05-2.37,3.11L463.98,1132.75L463.98,1132.75z M529.67,1258.47   c3.63,3.6,7.38,7.03,11.22,10.29c0.97-1.63,2.05-3.19,3.21-4.68c11.65-14.86,32.54-22.57,57.78-24.98   c5.04-0.48,10.25-0.75,15.61-0.83c-0.29-3.39-0.39-6.92-0.3-10.57c-17.04,3.61-35.88,2.92-54.47-2.84   c-1.68,2.28-3.44,4.57-5.29,6.87C547.93,1243.54,538.65,1252.32,529.67,1258.47L529.67,1258.47z M546.47,1273.32   c13.91,10.93,28.99,19.7,44.72,26.3c20.57-4.14,41.34-10.34,61.17-18.33c-17.9-3.68-28.11-14.55-32.57-30.07   c-0.54-1.88-1-3.84-1.36-5.85c-5.46,0.06-10.77,0.32-15.88,0.81c-23.38,2.23-42.53,9.13-52.85,22.29   C548.51,1269.99,547.43,1271.61,546.47,1273.32L546.47,1273.32z M603.34,1304.25c6.32,2.17,12.72,3.99,19.16,5.48   c5.34,1.23,10.7,2.22,16.08,2.99c7.05-6.94,12.2-14.99,14.79-24.19C637.08,1294.99,620.2,1300.28,603.34,1304.25L603.34,1304.25z    M620.89,1316.65c-10.3-2.37-20.49-5.59-30.43-9.64c-2.34,0.46-4.67,0.89-7,1.29c-13.51,2.32-26.87,3.76-39.78,4.23   c0.53,2.14,1.15,4.34,1.87,6.61c10.7,3.44,21.66,6.09,32.76,7.83c11.91,1.87,23.99,2.69,36.09,2.32   c6.28-3.07,12.06-6.57,17.17-10.49C628,1318.18,624.44,1317.47,620.89,1316.65L620.89,1316.65z M578.88,1301.87   c-12.33-5.95-24.2-13.23-35.35-21.83c-2.35,7.14-2.91,15.58-1.3,25.45C554.1,1305.11,566.4,1303.89,578.88,1301.87L578.88,1301.87z    M537.65,1275.33c-4.89-4.07-9.62-8.4-14.18-13c-22.05,12.34-42.15,8.79-59.27-5.01c-4.14-3.33-8.08-7.29-11.82-11.78   c-1.74,4.22-3.37,8.69-4.91,13.44c15.55,15.67,34.02,29.72,54.34,41.07c2.52,1.41,5.07,2.78,7.65,4.1c8.19,1,16.76,1.48,25.6,1.46   C533.28,1293.83,534.31,1283.79,537.65,1275.33L537.65,1275.33z M647.35,1313.74c8.84,0.83,17.7,1.03,26.48,0.6   c-5.05-8.75-9.34-17.77-12.85-26.88C658.76,1297.39,654.02,1306.13,647.35,1313.74L647.35,1313.74z M703.08,1310.45   c5.18-1.14,10.3-2.51,15.34-4.12c13.84-4.43,27.09-10.65,39.36-18.68c-3.15-3.27-6.7-6.57-10.59-9.89   c-0.95-0.27-1.89-0.56-2.81-0.85C731.32,1290.64,717.45,1301.73,703.08,1310.45L703.08,1310.45z M720.58,1313.09   c-11.19,3.58-22.75,6.03-34.49,7.37c7.84,11.15,18.61,22.41,30.59,32.11l9.9-4c8.02-3.25,15.37-6.23,22.01-8.66   c11.51-4.21,18.65-9.21,22.19-14.75c4.58-7.16,3.04-15.69-2.81-24.88c-1.52-2.4-3.33-4.83-5.39-7.3   C749.52,1301.66,735.37,1308.36,720.58,1313.09L720.58,1313.09z M660.92,1321.63c-6.65-0.13-13.31-0.61-19.96-1.43   c-3.13,2.8-6.53,5.42-10.18,7.86C640.88,1326.82,650.96,1324.71,660.92,1321.63L660.92,1321.63z M763.7,1283.58l2.83-2.09   c-1.92-0.22-3.78-0.47-5.6-0.75C761.89,1281.68,762.81,1282.63,763.7,1283.58L763.7,1283.58z M774.49,1275.05   c2.63-2.28,5.2-4.65,7.7-7.12c-5.23-2.62-10.3-5.62-15.23-8.97c-1.56-1.06-3.1-2.16-4.63-3.29c-2.98,3.96-6.02,7.76-9.1,11.4   c5.63,2.42,11.02,4.95,16.11,7.55C771.02,1274.78,772.74,1274.93,774.49,1275.05L774.49,1275.05z M792.59,1256.58   c1.5-1.8,2.96-3.64,4.4-5.53c11.93-15.7,21.57-34.36,28.16-56.01c-7.33,12.44-16.65,23.71-27.91,33.81   C794.6,1238.38,792.78,1247.91,792.59,1256.58L792.59,1256.58z M802.65,1255.34c-2.69,3.54-5.49,6.94-8.4,10.2   c7.68,3.04,15.71,5.22,24.11,6.43c47.91-11.47,82.37-50.17,104.1-96.42c-16.9-15.42-42.72-28.09-79.05-34.85   c-0.8,6.12-1.93,12.05-3.38,17.8C835.14,1198.02,821.7,1230.26,802.65,1255.34L802.65,1255.34z M787.23,1272.92l-2.59,2.51   l3.36,0.01C787.72,1274.61,787.47,1273.78,787.23,1272.92L787.23,1272.92z M774.1,1284.6c-1.86,1.48-3.75,2.92-5.66,4.31   c2.1,2.54,3.96,5.06,5.54,7.56c7.37,11.59,9.1,22.68,2.81,32.5c-4.37,6.83-12.68,12.81-25.76,17.59   c-6.23,2.28-13.65,5.29-21.77,8.58l-6.06,2.45c8.92,6.56,18.32,12.13,27.55,16.11c10.57,4.55,20.83,6.95,29.75,6.21   c8.47-0.71,15.78-4.34,20.98-11.83c6.42-9.24,9.8-24.27,8.56-46.74C809.39,1309.35,795.39,1296.38,774.1,1284.6L774.1,1284.6z    M833.07,1157.07c0.71-5.79,1.23-11.74,1.55-17.86l-1.89-0.29c-3.15,7.14-6.35,14.93-9.79,23.3c-1.78,4.34-3.63,8.83-5.53,13.4   c-0.91,2.17-1.89,4.47-2.95,6.95c-2.32,5.42-5.01,11.73-7.67,18.45c-1.7,4.3-3.41,8.82-5.02,13.45   c6.93-7.43,12.88-15.43,17.82-24.01C825.52,1180.18,830.02,1169.05,833.07,1157.07L833.07,1157.07z M834.94,1117.83   c-0.06-3.1-0.17-6.24-0.33-9.41c-0.05-0.92-0.12-1.83-0.2-2.74c-2.68,1.26-5.31,2.28-7.85,3.05c-5.7,6.8-12.64,12.74-20.75,17.45   l0.24,2.92c7.79,0.49,15.24,1.19,22.35,2.11C830.56,1126.45,832.73,1121.98,834.94,1117.83L834.94,1117.83z M830.71,1089.34   c-0.37-1.01-0.76-2.01-1.17-3c-10.09,1.19-20.79,1.8-31.79,1.75c0.79,2.41,1.53,4.83,2.21,7.26c2.48,2.48,5.79,4.78,10.06,6.83   c3.21,1.55,7.44,1.66,12.3,0.49l0.21-0.27C825.74,1098.33,828.46,1093.94,830.71,1089.34L830.71,1089.34z M826.48,1079.82   c-5.12-9.67-12.31-18.43-20.66-26.05c-3.3,4.43-6.13,8.87-8.23,13.22c-1.78,3.69-3,7.32-3.48,10.83l1.21,3.21   C806.11,1081.25,816.6,1080.81,826.48,1079.82L826.48,1079.82z M800.42,1049.13l-2.54-2.01c-2.57,6.17-5.54,12.35-8.9,18.49   l0.71,1.6c0.45-1.09,0.94-2.2,1.48-3.3C793.55,1059.01,796.73,1054.05,800.42,1049.13L800.42,1049.13z M804.08,1042.96l0.75,0.6   l1.55-1.85c-1.57-1.37-3.19-2.72-4.85-4.05l-0.94,2.6C801.76,1041.15,802.93,1042.04,804.08,1042.96L804.08,1042.96z    M810.22,1048.18c9.37,8.49,17.43,18.35,23.06,29.32c-3.7-10.53-11.33-21.07-21.65-31L810.22,1048.18L810.22,1048.18z    M791.98,1042.83c-7.07-4.85-14.52-8.96-21.95-12.26c5.56,8.92,10.66,17.93,15.17,27.05   C787.72,1052.7,789.98,1047.77,791.98,1042.83L791.98,1042.83z M758.8,1026.21c-10.56-3.52-20.62-5.21-28.98-4.79   c-7.71,0.39-13.81,2.57-17.17,6.79c-6.07,7.6-12.83,17.1-19.84,27.93c2.25,1.28,4.55,2.5,6.89,3.67   c18.69,9.35,39.97,15.29,61.46,18.45c3.65,0.53,7.3,0.99,10.94,1.37c2.81-4.11,5.49-8.35,8.03-12.73l0.91-1.58   C774.82,1052.09,767.27,1039.07,758.8,1026.21L758.8,1026.21z M688.99,1062.12c-5.44,8.67-10.98,18.05-16.41,27.89   c0.46,6.78,1.34,13.41,2.65,19.78c14.69,6.13,32.34,11.73,53.23,16.76c14.1-11.22,27.4-24.73,38.93-40.31   c-2.43-0.29-4.86-0.6-7.29-0.96c-22.15-3.25-44.15-9.41-63.58-19.13C693.97,1064.86,691.45,1063.52,688.99,1062.12L688.99,1062.12z    M661.38,1111.31c-6.65,13.28-12.88,27-18.28,40.62c1.76,3.95,3.43,7.99,4.99,12.12c8.59-1.28,17.57-3.6,26.7-6.91   c0.07-1.25,0.12-2.51,0.12-3.79c0.09-12.14-2.73-25.54-9.13-39.96C664.29,1112.7,662.82,1112.01,661.38,1111.31L661.38,1111.31z    M639.45,1161.49l-1.3,3.58l2.65-0.18L639.45,1161.49L639.45,1161.49z M635.68,1172.26c-2.87,8.62-5.29,17.07-7.16,25.22   c-0.38,1.66-0.74,3.31-1.08,4.95c5.37,2.13,10.91,4.43,16.54,6.88c2.8-1.81,5.46-3.8,7.96-5.95c-2.17-10.98-5.07-21.52-8.59-31.57   C640.75,1172.04,638.19,1172.2,635.68,1172.26L635.68,1172.26z M621.59,1195.87c1.76-7.68,4.01-15.62,6.65-23.72   c-8.03-0.44-15.52-1.96-22.23-4.61c-5.33-2.1-10.17-4.91-14.41-8.43l-2.7,1.47c-0.58,8.65-2.49,17.84-5.96,27.43   c10.18,2.21,23.23,6.32,37.77,11.82L621.59,1195.87L621.59,1195.87z M630.6,1165.15c1.5-4.31,3.11-8.65,4.8-13   c-2.79-6.04-5.83-11.85-9.07-17.43c-9.5,8.06-18.89,14.88-28.12,20.53c3.14,2.31,6.62,4.2,10.39,5.68   C615.14,1163.52,622.56,1164.9,630.6,1165.15L630.6,1165.15z M638.98,1143.22c4.88-11.81,10.34-23.63,16.09-35.12l-0.96-0.51   c-3.54,4.05-7.34,8.06-11.37,12.05c-3.67,3.63-7.32,7.07-10.97,10.33C634.31,1134.25,636.71,1138.67,638.98,1143.22L638.98,1143.22   z M626.13,1209.49c-0.49,3-0.9,5.94-1.2,8.81c3.26-1.06,6.42-2.3,9.46-3.71l1.91-0.92   C632.85,1212.21,629.46,1210.82,626.13,1209.49L626.13,1209.49z M624.36,1225.91c-0.19,4.34-0.11,8.48,0.26,12.39   c8.21,0.14,16.69,0.7,25.3,1.64c-0.53-6.9-0.58-13.7-0.11-20.33l-5.21-2.34c-2.33,1.36-4.73,2.61-7.2,3.76   C633.23,1222.95,628.87,1224.59,624.36,1225.91L624.36,1225.91z M625.68,1245.41c0.27,1.32,0.59,2.6,0.95,3.85   c3.74,13.01,12.36,22.1,27.5,25.12l1.4,0.26l0.23-2.77c-2.36-8.27-4.06-16.55-5.09-24.71   C642.15,1246.19,633.77,1245.59,625.68,1245.41L625.68,1245.41z M617.6,1220.35c0.37-4.36,0.96-8.87,1.76-13.5   c-15.19-5.8-28.76-10.04-39.07-12.17c-3.35,7.81-7.73,15.85-13.25,24.06C584.42,1223.72,601.9,1224.02,617.6,1220.35L617.6,1220.35   z M664.26,1275.49l1.59,0.03c3.92-1.78,7.79-3.63,11.6-5.55c8.16-4.11,16.06-8.54,23.6-13.26c-6.09-1.58-12.25-3.04-18.44-4.34   c-6.32-1.33-12.65-2.48-18.95-3.46c0.07,7.29-0.17,14.72-0.72,22.26C663.36,1272.61,663.8,1274.05,664.26,1275.49L664.26,1275.49z    M685.81,1273.62c10.09-1.83,21.6-5.02,34.67-9.73c-0.88-0.78-1.72-1.57-2.53-2.39c-2.54-0.78-5.11-1.55-7.7-2.29   C702.48,1264.34,694.3,1269.15,685.81,1273.62L685.81,1273.62z M734.06,1258.66l2.02-0.83c6.39-2.64,12.48-5.46,18.29-8.45   c-4.9-4.12-9.64-8.59-14.22-13.36c-5.55,5.12-11.5,10.03-17.8,14.72C726.39,1253.36,730.3,1256,734.06,1258.66L734.06,1258.66z    M727.22,1268.97c-24.63,9.26-44.34,13.49-59.86,13.65l-0.54,0.24c3.89,10.47,8.86,20.84,14.87,30.83   c19.39-8.9,38.08-21.85,55.4-39.51C733.48,1272.63,730.19,1270.89,727.22,1268.97L727.22,1268.97z M775.14,1237.08   c5.67-3.85,10.96-7.93,15.88-12.23c2.62-9.13,5.89-18.14,9.17-26.43c2.74-6.92,5.43-13.22,7.74-18.63l2.93-6.9   c1.94-4.64,3.76-9.08,5.52-13.37c3.15-7.67,6.11-14.88,9.02-21.58c-6.08-0.74-12.41-1.32-19-1.74   c0.75,28.04-6.17,57.33-23.74,88.32C780.21,1228.86,777.7,1233.04,775.14,1237.08L775.14,1237.08z M788.09,1236.47   c-6.43,4.98-13.39,9.64-20.87,13.98c1.23,0.9,2.47,1.77,3.72,2.62c4.72,3.21,9.59,6.08,14.62,8.58   C785.19,1253.75,786.22,1245.18,788.09,1236.47L788.09,1236.47z M750.5,1259.21c-2.55,1.21-5.16,2.39-7.81,3.54l3.61,1.43   C747.71,1262.55,749.11,1260.9,750.5,1259.21L750.5,1259.21z M842.4,1084.79c0.36,2.46,0.68,4.89,0.97,7.31   c0.77-0.56,1.55-1.14,2.32-1.73c3.32-2.56,6.63-5.46,9.88-8.68c-4.21,1.05-8.63,1.98-13.22,2.79L842.4,1084.79L842.4,1084.79z    M844.17,1100.15l0.2,2.63c2.1-2.78,4.31-5.31,6.64-7.58l-0.98,0.77C848.08,1097.48,846.12,1098.87,844.17,1100.15L844.17,1100.15z    M844.89,1115.08c0.07,6.37-0.15,12.57-0.69,18.6c36.84,6.8,63.46,19.53,81.34,35.11c5.77-13.2,10.53-26.92,14.31-40.73   c1.63-5.97,3.08-11.96,4.35-17.93c-9.29-9.21-21.56-16.06-36.62-19.31C875.06,1083.81,858.37,1093.42,844.89,1115.08   L844.89,1115.08z M816.29,1041.23c9.16,8.8,16.41,18.11,21.01,27.58c0.28-1.66,0.51-3.33,0.69-5.01   c1.34-12.9-0.53-26.23-5.84-38.59C826.86,1030.24,821.39,1035.65,816.29,1041.23L816.29,1041.23z M713.56,988.11   c7.57,1.77,15.18,3.97,22.69,6.55c-5.18-6.77-10.53-13.52-15.97-20.24c-1.21,0.44-2.41,0.93-3.58,1.49   c-5,2.36-9.63,5.75-13.87,9.98C706.39,986.53,709.97,987.27,713.56,988.11L713.56,988.11z M689.27,991.09   c-3.53-0.39-7.03-0.66-10.47-0.81c1.63,3.66,3.04,7.29,4.22,10.9C684.95,997.62,687.03,994.24,689.27,991.09L689.27,991.09z    M654.83,984.3c4.03-0.59,8.19-0.97,12.44-1.14c-3.35-5.98-7.36-12.03-12.06-18.18c-5.87,6.82-11.2,13.53-15.93,20.11l0.54,2.64   C644.59,986.2,649.61,985.07,654.83,984.3L654.83,984.3z M675.29,983.07c6.22,0.11,12.61,0.62,19.09,1.49   c5.67-6.51,12.11-11.68,19.27-15.06c0.63-0.3,1.27-0.58,1.91-0.85c-2.8-3.42-5.62-6.83-8.45-10.24   c-7.84-9.44-15.38-17.52-22.61-24.37c-8.85,8.66-17.07,17.17-24.53,25.52C666.15,967.5,671.24,975.34,675.29,983.07L675.29,983.07z    M602.83,1017.36c5.27-9.87,12.72-17.37,21.76-22.81c2.21-3.64,4.62-7.32,7.21-11.04c-2.11-12.82-2.23-27.01,0.03-42.66   c-12.51-9.95-26.52-17.33-40.98-21.79c-4.06,5.17-7.39,11.32-9.94,18.11c-7.34,19.55-8.28,44.37-1.89,67.27   c0.4,1.45,0.84,2.89,1.3,4.32c6.79,5,13.2,9.97,19.23,14.89C600.6,1021.59,601.7,1019.49,602.83,1017.36L602.83,1017.36z    M595.44,1049c-4.16,9.73-7.42,18.8-9.88,27.22c10.06,7.95,19.55,17.3,28.22,27.89c5.04,6.15,9.79,12.73,14.22,19.69   c3.23-2.92,6.48-5.99,9.73-9.21c3.56-3.52,6.92-7.05,10.08-10.61c-20.68-12.47-32.65-26.67-37.45-42.3   C604.83,1058,599.86,1053.73,595.44,1049L595.44,1049z M583.56,1083.73c-3.33,13.6-4.39,25.38-3.56,35.43   c1.48,2.58,2.8,5.3,3.95,8.15c2.23,5.53,3.79,11.54,4.57,17.94c1.25,1.82,2.62,3.52,4.1,5.08c9.8-5.83,19.82-13.07,29.99-21.77   c-4.45-7.07-9.24-13.73-14.32-19.94C600.63,1099.27,592.32,1090.93,583.56,1083.73L583.56,1083.73z M719.55,1133.26l1.65-1.19   c-16.66-4.21-31.25-8.83-43.92-13.82c1.57,5.61,3.51,10.93,5.84,15.87c1.96,4.14,3.95,8.26,5.98,12.34c1.08-0.72,2.18-1.42,3.3-2.1   C700.31,1139.57,709.35,1135.81,719.55,1133.26L719.55,1133.26z M784.6,1073.26c-1.45,2.4-2.93,4.76-4.46,7.08   c2.12,0.16,4.24,0.29,6.35,0.4c0.03-0.81,0.09-1.62,0.19-2.44C786.01,1076.61,785.32,1074.93,784.6,1073.26L784.6,1073.26z    M775.54,1087.07c-2.05,2.89-4.17,5.71-6.34,8.47c1.39,0.37,2.52,1.36,3.34,3.01c5.02,9.97,8.4,19.76,10.34,29.33   c5.5-1.42,10.61-3.35,15.33-5.7c-0.93-7.66-2.45-15.23-4.46-22.71c-3.46-3.6-5.57-7.51-6.58-11.63   C783.31,1087.65,779.43,1087.4,775.54,1087.07L775.54,1087.07z M722.43,1139.87c-9.24,6.5-18.72,12.07-28.18,16.68   c4.69,8.98,9.58,17.73,14.7,26.14c4.42-13.8,10.69-27.39,17.5-39.56c0.88-1.57,1.76-3.11,2.66-4.63   C726.82,1138.9,724.6,1139.35,722.43,1139.87L722.43,1139.87z M687.8,1159.53c-2.11,0.93-4.21,1.8-6.31,2.63   c-2.08,17.68-10.05,32.55-21.83,43.81c0.67,3.7,1.26,7.45,1.77,11.24c14.81,7,29.83,14.83,43.97,23.1   c-1.83-5.92-2.74-12.23-2.89-18.8c-0.22-9.52,1.21-19.56,3.79-29.64C699.79,1181.56,693.63,1170.71,687.8,1159.53L687.8,1159.53z    M667.85,1166.88c-5.88,1.74-11.67,3.07-17.3,3.98c2.06,5.99,3.9,12.15,5.5,18.46c0.55-1.52,1.14-3.02,1.76-4.5   C660.49,1178.43,663.83,1172.41,667.85,1166.88L667.85,1166.88z M803.8,982.61c-0.28-16.39-3.55-32.03-9.65-46.29   c-9.1-21.27-24.51-39.52-45.65-52.68c-10.35,4.3-20.77,10.84-31.12,19.98c-9.74,8.6-19.04,17.1-27.78,25.48   c7.39,7.01,15.05,15.21,22.98,24.75c3.43,4.13,6.85,8.27,10.23,12.42c3.48-0.83,7.09-1.27,10.84-1.27   C763.02,965.02,786.28,971.78,803.8,982.61L803.8,982.61z M748.82,875.56l0.31,0.18c16.39-6.13,32.61-7.12,48.09-4.17   c20.1,3.83,38.86,14.33,55.02,28.79c2.11,1.89,4.19,3.86,6.21,5.88c-10.2-13.23-23.04-26.7-38.96-40.24   c-7.18-6.11-17.1-13.06-28.48-19.6c-18.23-10.48-40.14-19.88-60.46-23.03c-19.65-3.05-37.79-0.22-49.34,13.35   c-1.66,1.95-3.19,4.13-4.57,6.53c-2.16,3.76-4.22,7.46-6.18,11.11c10.09,0.44,19.71,1.5,28.67,3.18   C717.9,861.05,734.51,867.23,748.82,875.56L748.82,875.56z M740.88,879.26c-12.6-6.7-26.99-11.73-43.09-14.75   c-9.63-1.8-20.05-2.87-31-3.2c-7.21,14.02-12.98,27.22-17.43,39.65c10.78,4.64,22.48,12.23,35.01,23.35   c8.91-8.56,18.38-17.23,28.31-25.99C722.03,890.05,731.47,883.77,740.88,879.26L740.88,879.26z M658.87,861.2   c-3.65,0.01-7.34,0.09-11.07,0.26c-43.38,1.93-92.17,14.47-132.24,37.87c-36.5,21.33-65.71,51.69-76.74,91.27   c8.14-9.18,17.99-15.89,29.68-19.36c3.06-7.91,6.7-15.04,10.83-21.42c12.33-19.01,28.99-31.32,47.56-37.66   c18.51-6.32,38.9-6.69,58.77-1.88l2.72,0.69c8.01-8.68,18.23-14.37,30.47-15.58c7.28-0.72,15.25,0.18,23.87,3.03   C646.94,886.68,652.28,874.28,658.87,861.2L658.87,861.2z M435.33,1007.42c-1.12,8.06-1.53,16.45-1.14,25.17   c0.56,12.44,1.88,24.18,3.9,35.16c6.53-5.1,13.33-9.31,20.33-12.65c-0.17-2.59-0.31-5.22-0.42-7.88   c-1.11-26.35,1.69-48.63,7.43-67.15c-10.77,4.37-19.58,11.97-26.6,21.94C437.62,1003.74,436.45,1005.55,435.33,1007.42   L435.33,1007.42z M427.12,1032.89c-0.12-2.68-0.17-5.33-0.15-7.95c-7.09,18.8-10.64,41.44-11.12,65.2   c5.08-6.46,10.44-12.19,16.03-17.2C429.38,1060.54,427.76,1047.16,427.12,1032.89L427.12,1032.89z M439.69,1075.6   c3.94,17.67,9.78,33.17,17.25,46.23c0.67,1.18,1.36,2.33,2.06,3.47c2.95-3.84,5.99-7.36,9.1-10.56   c-4.33-15.55-7.46-32.85-9.1-51.99C452.35,1066.16,445.89,1070.43,439.69,1075.6L439.69,1075.6z M450.78,1125.35   c-7.25-12.68-13.04-27.55-17.11-44.36c-6.28,6.02-12.24,13.04-17.8,21.11c0.24,10.64,1.06,21.41,2.43,32.08   c2.3,17.93,6.13,35.52,11.31,51.67c6.63-22.21,15.19-40.18,24.9-54.36C453.23,1129.5,451.98,1127.46,450.78,1125.35L450.78,1125.35   z M564.23,1171.07c-22.61,7.15-43.68,6.88-62.23,0.11c3.5,4.87,7.17,9.36,10.99,13.5c17.36-2.95,38.04-2.14,62.87,2   c2.91-7.78,4.72-15.26,5.57-22.36C575.61,1167.03,569.87,1169.28,564.23,1171.07L564.23,1171.07z M652.49,1098.53   c1.1-1.33,2.16-2.66,3.2-3.99c-4.12-6.57-8.96-13.31-14.56-20.19c-7.5-1.54-14.4-3.89-20.69-6.92   C626.16,1078.68,636.57,1089.1,652.49,1098.53L652.49,1098.53z M672.57,1066.98c1.83-4.1,3.36-8.23,4.59-12.39   c-1.03-0.73-2.04-1.47-3.04-2.22C673.41,1057.2,672.89,1062.08,672.57,1066.98L672.57,1066.98z M650.75,959.37   c-3.9-4.68-8.07-9.03-12.48-13.03c-1.2,10.31-1.29,19.92-0.4,28.86C641.83,969.98,646.14,964.71,650.75,959.37L650.75,959.37z    M596.1,913.32c12.98,4.39,25.57,10.99,37.05,19.61c1.67-8.82,4.08-18.09,7.28-27.81c-7.57-2.47-14.54-3.26-20.88-2.63   C610.42,903.38,602.57,907.28,596.1,913.32L596.1,913.32z M639.46,937.96c5.7,4.83,11.08,10.19,16.03,16.03   c7.28-8.13,15.25-16.38,23.79-24.75c-11.62-10.28-22.37-17.3-32.22-21.59C643.56,918.34,641.06,928.43,639.46,937.96L639.46,937.96   z M583.47,917.06c-18.41-4.37-37.23-3.99-54.28,1.83c-17.13,5.85-32.51,17.21-43.9,34.79c-3.09,4.76-5.89,9.99-8.35,15.68   c24.13-3.69,55.19,5.33,94.1,32.73l0.04,0.03c-5.55-23.13-4.21-47.75,3.19-67.45C576.69,928.21,579.77,922.27,583.47,917.06   L583.47,917.06z M519.17,1190.93c9.67,9.17,20.1,16.22,30.83,21.34c3.31,1.58,6.65,2.97,10,4.18c5.45-7.89,9.78-15.59,13.1-23.05   C552.09,1190,534.29,1189.08,519.17,1190.93L519.17,1190.93z M662.78,1191.55c3.85-5.36,6.89-11.33,8.97-17.85   c-2.89,4.35-5.36,8.98-7.41,13.86C663.79,1188.87,663.27,1190.21,662.78,1191.55L662.78,1191.55z M632.92,1064.78   c-5.38-5.97-11.33-12.03-17.89-18.19c0.13,3.58,0.64,7.09,1.52,10.54C621.53,1060.21,626.98,1062.8,632.92,1064.78L632.92,1064.78z    M681.88,1147.88c0.08,1.3,0.12,2.59,0.14,3.86l1.27-1.03L681.88,1147.88L681.88,1147.88z M411.26,1135.06   c-0.96-7.44-1.65-14.93-2.06-22.4c-20.08,35.35-12.26,77.28,12.47,114.79c0.26-7.35,1.31-15.23,3.23-23.64   c0.46-2,0.93-3.96,1.41-5.9C419.22,1178.69,414.09,1157.09,411.26,1135.06L411.26,1135.06z M447.4,1239.12   c-6.13-8.54-11.64-18.56-16.44-29.61c-2.04,10.41-2.59,19.89-1.82,28.47c3.45,4.53,7.13,8.97,11.05,13.31l1.74,1.9   C443.64,1248.22,445.46,1243.53,447.4,1239.12L447.4,1239.12z M432.01,1252.74c1.49,4.79,3.47,9.23,5.9,13.32   c0.5-1.75,1-3.47,1.52-5.17c-1.53-1.6-3.03-3.22-4.5-4.85C433.94,1254.95,432.97,1253.84,432.01,1252.74L432.01,1252.74z    M443.22,1273.61c10.4,12.68,25.87,21.31,44.52,26.37c-15.61-9.73-29.98-21.01-42.61-33.34   C444.47,1268.91,443.84,1271.23,443.22,1273.61L443.22,1273.61z M491.41,1308.23c-20.61-4.71-38.05-13.18-50.34-25.86   c-1.33,5.75-2.58,11.79-3.76,18.13c-2.88,15.49,8.65,27.44,27.56,35.28c12.2,5.06,27.4,8.41,43.87,9.93   c12.96,1.19,26.7,1.25,40.38,0.11c-0.78-1.43-1.54-2.89-2.26-4.41c-2.79-5.83-5.09-11.38-6.92-16.65   c-11.21-3.78-22.11-8.4-32.6-13.72C501.86,1310.33,496.54,1309.4,491.41,1308.23L491.41,1308.23z M536.42,1312.69   c-2.92,0.02-5.82,0-8.68-0.09c3.17,1.31,6.37,2.55,9.6,3.72C537,1315.1,536.69,1313.88,536.42,1312.69L536.42,1312.69z    M708.99,1251.53l0.64-0.43c-14.93-9.15-31.16-17.86-47.24-25.61c0.53,5.32,0.9,10.73,1.1,16.21c6.84,1.03,13.73,2.28,20.58,3.72   C692.46,1247.17,700.8,1249.23,708.99,1251.53L708.99,1251.53z M715.95,1246.64c6.89-5.02,13.36-10.31,19.34-15.85   c-8.37-9.31-16.22-19.61-23.62-30.65c-1.46,7.25-2.22,14.39-2.06,21.22C709.82,1230.51,711.75,1239.11,715.95,1246.64   L715.95,1246.64z M740.4,1225.88c25.63-25.62,40.57-56.11,36.6-89.46c-9.98,1.69-20.96,1.92-32.91,0.37l-3.14,0.23l-2.83,0.25   c-1.84,2.98-3.67,6.08-5.47,9.3c-7.58,13.54-14.47,28.87-18.71,44.12C722.17,1203.48,730.96,1215.35,740.4,1225.88L740.4,1225.88z    M775.68,1128.34c-1.81-8.7-4.91-17.58-9.46-26.61c-0.39-0.77,0.54,1.15,0.49,1.18c-5.08,2.56-14.11,12.54-23.56,26.57l1.21,0.17   C755.27,1128.87,765.71,1128.44,775.68,1128.34L775.68,1128.34z M784.13,1135.43c4.46,35.88-11.48,68.49-38.86,95.69   c5.03,5.22,10.23,10.06,15.63,14.46c5.4-7.59,10.6-15.76,15.58-24.55c16.96-29.92,23.58-58.18,22.77-85.21   C794.35,1135.6,789.3,1135.47,784.13,1135.43L784.13,1135.43z M795.65,1275.24c1.29-0.07,2.57-0.15,3.84-0.26   c-1.53-0.48-3.04-1-4.55-1.55C795.16,1274.04,795.39,1274.65,795.65,1275.24L795.65,1275.24z M946.7,1129.93   c-4.08,14.93-9.3,29.77-15.67,43.99c2.07,2.09,4,4.22,5.78,6.38c7.73,9.38,12.85,19.43,15.61,29.61c1.23-2.09,2.36-4.2,3.41-6.33   c7.87-15.97,10.81-32.99,9.13-48.9c-1.47-14.02-6.53-27.18-14.94-37.99C949.01,1121.1,947.9,1125.52,946.7,1129.93L946.7,1129.93z    M927.82,1180.82c-19.7,40.95-49.25,75.96-89.21,92.14c21.13-0.89,44.44-7.67,70.26-21.84c16.31-8.95,28.94-20.32,38.09-32.89   c-1.86-11.43-6.92-22.87-15.62-33.42C930.22,1183.47,929.05,1182.13,927.82,1180.82L927.82,1180.82z M818.53,1279.24   c-6.01,1.36-12.23,2.32-18.64,2.84c2.68,3.13,6.2,5.66,10.7,7.44c48.32,19.12,88.2,10.78,112.29-9.62   c13.95-11.81,22.6-27.67,24.5-44.51c0.25-2.21,0.38-4.44,0.39-6.68c-9.17,10.87-20.97,20.68-35.5,28.65   C876.88,1276.78,845.89,1282.89,818.53,1279.24L818.53,1279.24z M806.95,1108.58c-1.5-0.72-2.9-1.47-4.22-2.24   c0.87,3.99,1.59,8.01,2.16,12.05c3.72-2.37,7.14-5.04,10.26-7.95C812.12,1110.35,809.36,1109.74,806.95,1108.58L806.95,1108.58z    M709.19,1355.54c-11.94-10.08-22.54-21.56-30.18-32.84c-20.55,8.57-41.79,12.88-62.99,13.66c-16.13,7.65-35.1,12.7-54.66,15.3   l-0.07,0.01C594.14,1395.3,659.6,1374.97,709.19,1355.54L709.19,1355.54z M548.52,1327.48c1.37,3.49,2.95,7.1,4.74,10.86   c1.13,2.37,2.34,4.59,3.6,6.72l3.58-0.45c12.9-1.71,25.52-4.51,37.14-8.44c-6.83-0.39-13.63-1.13-20.38-2.19   C567.51,1332.45,557.93,1330.26,548.52,1327.48z" clip-rule="evenodd" class="color9d7558 svgShape"/><path fill="#f4ae7c" fill-rule="evenodd" d="M1757.59,970.2c-5.77-0.22-11.27,37.86-7.65,41.64c3.62,3.78,3.84,50.74,3.84,50.74l-54.49-1.94l-0.01,0.04   c-1.05-0.75-12.4-8.53-14.01-10.2c-1.69-1.8-10.03-1.01-12.25,1.41c-2.22,2.37,4.22,1.23,6.16,2.55c1.94,1.36-0.84,3.87-0.84,3.87   s-13.83,1.85-16.49-1.01c-2.66-2.9-9.81-7.83-10.81-4.97c-0.52,1.49,3.14,5.98,5.21,7.87c-2.58-1.98-5.69-4.09-6.76-3.74   c-1.96,0.66-1.18,3.17-0.12,3.91c1.05,0.7,11.93,9.19,13.64,9.81c1.67,0.61,27.17,1.49,31.56,2.51c0,0,71.7,17.11,75.8,16.14   c3.6-0.88,7.42-23.83,7.6-41.47C1778.14,1029.74,1775.64,970.91,1757.59,970.2z" clip-rule="evenodd" class="colorf4ae7c svgShape"/><path fill="#406fb5" fill-rule="evenodd" d="M1750.19,961.45c0,0,10.03,2.42,20.29,14.2c9.33,10.69,14.68,70.18,14.68,70.18l-32.67,4.93l-2.31-28.76   l-8.58-13.24L1750.19,961.45z" clip-rule="evenodd" class="color406fb5 svgShape"/><path fill="#0f3970" fill-rule="evenodd" d="M372.86,902.93c-3.8-10.91-10.22-17.65-21.8-24.62c-9.37-5.62-19.65-5.54-28.77-0.86   c-25.84,13.27-14.22,37.42-31,62.88c-7.18,10.86-17.92,16.41-23.29,27.83c-9.74,20.58-1.26,54.08,24.83,72.94   c63.91,46.2,83.28-39.42,83.46-57.18C376.43,970.7,375.3,909.95,372.86,902.93z" clip-rule="evenodd" class="color0f3970 svgShape"/><path fill="#6998d0" fill-rule="evenodd" d="M322.4,950.92c-5.2,2.99-6.79,7.91-10.31,9.74c-10.21,0.96-20.27,1.75-25.06,5.07   c-18.74,22.65-33.87,42.67-45.4,60.07c-4.67,9.64-3.73,18.95,2.81,27.92c8.03-7.42,16.73-9.29,26.12-5.62   c-0.31-3.92-1.79-8-4.42-12.26c13.48-11.83,24.53-22.68,33.15-32.55c-1.59,12.95,3.09,31.36,14.07,55.25   c38.17,2.49,60.07,1.88,65.7-1.81c1.86-10.68,3.33-22.33,4.42-34.96c8.76,7.84,15.86,14.81,21.3,20.89   c4.12,1.35,8.54,1.62,13.26,0.8c3.34-7.84,6.68-14.94,10.05-21.3c-2.32-2.09-6.34-3.76-12.05-5.02   c-15.59-22.23-29.05-40.18-40.38-53.84c-8.79-2.05-15.36-3.12-19.69-3.21c-1.85-2.19-4.6-4.06-8.24-5.62   c2.12,11.67,2.92,25.67,2.81,35.56C333.85,977.82,324.47,961.86,322.4,950.92z" clip-rule="evenodd" class="color6998d0 svgShape"/><path fill="#0f3970" fill-rule="evenodd" d="M294.09,1158.7c-7.92-49.04-1.5-82.42,19.26-100.15c32.24,2.1,52.87,2,61.89-0.31   c0.1,3.45,0.32,7.52,1.05,12.86c5.61,41.34,12.33,105.52,11.42,168.56c-22.75,7.99-58.38,7.65-106.88-1   C286.36,1214.13,290.79,1187.48,294.09,1158.7z" clip-rule="evenodd" class="color0f3970 svgShape"/><path fill="#406fb5" fill-rule="evenodd" d="M355.95 960.11c1.96 5.76 3.01 10.51 3.14 14.26-2.24-1.79-3.9-3.01-4.97-3.67-.82 9.24-2.02 15.69-3.59 19.34.11-9.89-.69-23.89-2.81-35.56C351.35 956.04 354.09 957.92 355.95 960.11zM322.4 950.92c2.08 10.95 11.45 26.91 28.13 39.13-9.96-3.54-20.85-12.19-27.1-23.71-1.03 3.9-2.34 8.45-3.92 13.66-4.34-5.37-6.81-11.82-7.42-19.34C315.6 958.83 317.2 953.91 322.4 950.92z" clip-rule="evenodd" class="color406fb5 svgShape"/><path fill="#f4ae7c" fill-rule="evenodd" d="M269.42 1047.68c6.65 13.59 14.43 27.15 22.19 37.92 1.78-1.9 3.49-6.03 6.01-7.62 1-.63 2.6 1 3.66.5 5.08-2.39 10.72-3.08 15.27.33 1.14.86 1.75 2.53 1.92 6.49-.19 5.45-4.75 6.49-11.1 3.92-8.49 9.27-14.15 12.28-18.78 9.04-20.96-18.82-34.84-34.41-41.63-46.8C253.95 1046.15 261.43 1044.89 269.42 1047.68zM485.59 1045.35c-31.41 1.04-53.84.21-67.3-2.49 3.25-7.59 6.51-14.48 9.78-20.68 25.05 3.72 46.49 6.45 64.34 8.2 6.41-4.39 11.77-6.2 16.07-5.42 1.18 2.7-.09 4.68-3.81 5.93-1 1.4-1.41 2.71-1.21 3.92 9.29 3.97 17.46 6.41 24.51 7.33.83 8.36-4.34 13.68-15.5 15.96C501.08 1055.15 492.12 1050.91 485.59 1045.35z" clip-rule="evenodd" class="colorf4ae7c svgShape"/><path fill="#142d4d" fill-rule="evenodd" d="M290.8,1377c5.85,21.84,3.88,33.47-7.16,35.07c-14.65,1.06-18.62-13.42-12.87-43.24   c-0.13,1.63-0.23,3.13-0.29,4.47c-1.62,31.24,22.62,24.25,20.93,9.86C291.18,1381.15,290.99,1379.1,290.8,1377z" clip-rule="evenodd" class="color142d4d svgShape"/><path fill="#f4ae7c" fill-rule="evenodd" d="M291.41,1383.15c1.69,14.39-22.55,21.38-20.93-9.86c0.06-1.34,0.16-2.84,0.29-4.47   c0.99-12.73,3.68-33.11,3.48-45.96c-0.52-32.83,2.4-60.77,8.75-83.82c11.75,2.05,22.73,3.61,32.95,4.67   c-5.52,19.19-10.31,36.74-14.36,52.65c-4.98,19.55-14.26,48.47-11.94,68.31c0.5,4.25,0.81,8.37,1.15,12.32   C290.99,1379.1,291.18,1381.15,291.41,1383.15z" clip-rule="evenodd" class="colorf4ae7c svgShape"/><path fill="#142d4d" fill-rule="evenodd" d="M388.33,1386.92c-8.45,0.46-0.74,7.03-6.24,8.51c-12.03-6.58-18.7-24.52-23.5-32.44   c-2.53-4.17-4.36,1.14-5.6,7.07c-2.68,12.74-2.6,29.57,0.43,34.8c2.2-3.83,4.09-15.63,6.09-22.84   c11.81,10.5,9.23,22.08,16.23,26.03c16.8,1.86,25.88,2.32,38.63,2.6C417.17,1399.81,395,1403.47,388.33,1386.92z" clip-rule="evenodd" class="color142d4d svgShape"/><path fill="#f4ae7c" fill-rule="evenodd" d="M382.06,1241.4c-1.61,63.01-7.41,119.15,3.09,146.31c-2.92,1.89,1.44,6.52-3.06,7.73   c-12.04-6.58-18.7-24.52-23.5-32.44c-0.03-0.04-0.05-0.09-0.08-0.13c0.67-1.68,1.15-3.6,1.44-5.78   c-0.21-52.26-13.27-84.49-10.75-111.7C361.92,1245.2,372.88,1243.87,382.06,1241.4z" clip-rule="evenodd" class="colorf4ae7c svgShape"/><path fill="#406fb5" fill-rule="evenodd" d="M405.89 1043.02c4.23-8.03 8.46-16.44 12.69-25.23 4.37 1.17 7.53 2.64 9.48 4.4-3.27 6.19-6.53 13.08-9.78 20.68-.09.21-.18.41-.26.62C413.73 1044.22 409.69 1044.07 405.89 1043.02zM268.05 1039.34c1.44 3.01 2.27 5.93 2.5 8.76-.38-.15-.76-.29-1.13-.42-7.98-2.79-15.47-1.53-22.46 3.79.02.03.03.06.05.09-.86.66-1.72 1.38-2.57 2.17-2.39-3.29-4.04-6.62-4.93-9.99C250.16 1037.53 259.68 1036.06 268.05 1039.34z" clip-rule="evenodd" class="color406fb5 svgShape"/><path fill="#f4ae7c" fill-rule="evenodd" d="M347.96,947.66c-1.07,4.02-0.96,7.45,0.33,10.27c1.69,10.9,2.34,23.18,2.23,32.12   c-15.92-11.67-25.18-26.73-27.8-37.6c2.11-3.4,2.97-7.37,2.59-11.91c0.39-2.12-0.82-6.08-3.62-11.85c-9.52-1.65-11.89-9.65-7.93-16   c4.45-1.57,6.85,2.07,8.03,8.67c2.54-0.38,1.57-4.43,1.31-6.33c-1.19-5.49-0.2-8.46,1.81-13.66c11.44,8.04,21.24,8.29,36.86,3.76   c-0.46,3.75-0.79,7.36-1.01,10.85C365.05,926.39,358.5,944.12,347.96,947.66z" clip-rule="evenodd" class="colorf4ae7c svgShape"/><path fill="#ed7d5b" fill-rule="evenodd" d="M347.96,947.66c-6.38,0.72-9.28,0.68-15.18-1.68c3.46,3.73,8.28,5.78,14.47,6.14   C347.31,950.73,347.54,949.24,347.96,947.66z" clip-rule="evenodd" class="colored7d5b svgShape"/><path fill="#d0d9ee" fill-rule="evenodd" d="M620.09,695.03H236.21c2.76-11.66,13.23-20.34,25.73-20.34c0.6,0,1.2,0.02,1.8,0.07   c6.06-14.84,20.64-25.3,37.67-25.3c7.45,0,14.42,2.01,20.42,5.5c7.32-24.13,29.74-41.71,56.27-41.71c5.39,0,10.63,0.73,15.59,2.1   c12.84-28.35,41.38-48.07,74.53-48.07c39.31,0,72.15,27.75,79.99,64.73c0.67-0.02,1.32-0.05,1.99-0.05   c25.19,0,45.97,18.83,49.04,43.18C609.52,677.07,617.71,684.93,620.09,695.03z" clip-rule="evenodd" class="colord0d9ee svgShape"/><path fill="#ffffff" fill-rule="evenodd" d="M886.63 734.52H415.89c3.38-14.31 16.22-24.94 31.56-24.94.73 0 1.48.03 2.21.09 7.43-18.2 25.31-31.03 46.19-31.03 9.14 0 17.68 2.46 25.04 6.74 8.98-29.59 36.47-51.14 69-51.14 6.62 0 13.03.9 19.12 2.58 15.75-34.77 50.75-58.95 91.4-58.95 48.21 0 88.47 34.03 98.1 79.38.82-.03 1.62-.06 2.43-.06 30.89 0 56.37 23.1 60.14 52.95C873.68 712.5 883.71 722.14 886.63 734.52zM1475.99 1055.92h-246.97c1.77-7.5 8.51-13.09 16.56-13.09.38 0 .77.01 1.16.04 3.9-9.55 13.28-16.28 24.24-16.28 4.79 0 9.28 1.29 13.14 3.54 4.71-15.53 19.13-26.83 36.2-26.83 3.47 0 6.84.47 10.03 1.35 8.26-18.24 26.62-30.93 47.95-30.93 25.29 0 46.42 17.85 51.46 41.65.43-.02.85-.03 1.28-.03 16.2 0 29.58 12.12 31.55 27.78C1469.19 1044.37 1474.46 1049.42 1475.99 1055.92z" clip-rule="evenodd" class="colorfff svgShape"/></svg>